<?xml version="1.0" encoding="UTF-8" standalone="no"?>
<!DOCTYPE svg PUBLIC "-//W3C//DTD SVG 1.1//EN"
 "http://www.w3.org/Graphics/SVG/1.1/DTD/svg11.dtd">
<!-- Generated by graphviz version 2.44.0 (20200408.0750)
 -->
<!-- Title: dependencies Pages: 1 -->
<svg width="504pt" height="211pt"
 viewBox="0.00 0.00 504.00 211.00" xmlns="http://www.w3.org/2000/svg" xmlns:xlink="http://www.w3.org/1999/xlink">
<g id="graph0" class="graph" transform="scale(1 1) rotate(0) translate(4 207)">
<title>dependencies</title>
<polygon fill="white" stroke="transparent" points="-4,4 -4,-207 500,-207 500,4 -4,4"/>
<text text-anchor="start" x="227.01" y="-42.4" font-family="sans-serif" font-weight="bold" font-size="14.00">Legend</text>
<polygon fill="#ffffb3" stroke="transparent" points="14,-10 14,-30 34,-30 34,-10 14,-10"/>
<text text-anchor="start" x="37.63" y="-15.4" font-family="sans-serif" font-size="14.00"> &#160;Declarations</text>
<polygon fill="#8dd3c7" stroke="transparent" points="127,-10 127,-30 147,-30 147,-10 127,-10"/>
<text text-anchor="start" x="150.73" y="-15.4" font-family="sans-serif" font-size="14.00"> &#160;Module</text>
<polygon fill="#80b1d3" stroke="transparent" points="213,-10 213,-30 233,-30 233,-10 213,-10"/>
<text text-anchor="start" x="236.78" y="-15.4" font-family="sans-serif" font-size="14.00"> &#160;Bootstrap</text>
<polygon fill="#fdb462" stroke="transparent" points="310,-10 310,-30 330,-30 330,-10 310,-10"/>
<text text-anchor="start" x="333.67" y="-15.4" font-family="sans-serif" font-size="14.00"> &#160;Providers</text>
<polygon fill="#fb8072" stroke="transparent" points="406,-10 406,-30 426,-30 426,-10 406,-10"/>
<text text-anchor="start" x="429.73" y="-15.4" font-family="sans-serif" font-size="14.00"> &#160;Exports</text>
<g id="clust1" class="cluster">
<title>cluster_HistoryModalPageModule</title>
<polygon fill="none" stroke="black" stroke-dasharray="1,5" points="54,-70 54,-195 442,-195 442,-70 54,-70"/>
</g>
<g id="clust4" class="cluster">
<title>cluster_HistoryModalPageModule_imports</title>
<polygon fill="none" stroke="black" points="208,-78 208,-130 434,-130 434,-78 208,-78"/>
</g>
<g id="clust2" class="cluster">
<title>cluster_HistoryModalPageModule_declarations</title>
<polygon fill="none" stroke="black" points="62,-78 62,-130 200,-130 200,-78 62,-78"/>
</g>
<!-- HistoryModalPage -->
<g id="node1" class="node">
<title>HistoryModalPage</title>
<polygon fill="#ffffb3" stroke="black" points="191.75,-122 70.25,-122 70.25,-86 191.75,-86 191.75,-122"/>
<text text-anchor="middle" x="131" y="-99.8" font-family="Times,serif" font-size="14.00">HistoryModalPage</text>
</g>
<!-- HistoryModalPageModule -->
<g id="node2" class="node">
<title>HistoryModalPageModule</title>
<polygon fill="#8dd3c7" stroke="black" points="315.8,-187 312.8,-191 291.8,-191 288.8,-187 150.2,-187 150.2,-151 315.8,-151 315.8,-187"/>
<text text-anchor="middle" x="233" y="-164.8" font-family="Times,serif" font-size="14.00">HistoryModalPageModule</text>
</g>
<!-- HistoryModalPage&#45;&gt;HistoryModalPageModule -->
<g id="edge1" class="edge">
<title>HistoryModalPage&#45;&gt;HistoryModalPageModule</title>
<path fill="none" stroke="black" d="M171.11,-122.11C171.11,-122.11 171.11,-140.99 171.11,-140.99"/>
<polygon fill="black" stroke="black" points="167.61,-140.99 171.11,-150.99 174.61,-140.99 167.61,-140.99"/>
</g>
<!-- HistoryModalPageRoutingModule -->
<g id="node3" class="node">
<title>HistoryModalPageRoutingModule</title>
<polygon fill="#8dd3c7" stroke="black" points="426.42,-122 423.42,-126 402.42,-126 399.42,-122 215.58,-122 215.58,-86 426.42,-86 426.42,-122"/>
<text text-anchor="middle" x="321" y="-99.8" font-family="Times,serif" font-size="14.00">HistoryModalPageRoutingModule</text>
</g>
<!-- HistoryModalPageRoutingModule&#45;&gt;HistoryModalPageModule -->
<g id="edge2" class="edge">
<title>HistoryModalPageRoutingModule&#45;&gt;HistoryModalPageModule</title>
<path fill="none" stroke="black" d="M265.72,-122.11C265.72,-122.11 265.72,-140.99 265.72,-140.99"/>
<polygon fill="black" stroke="black" points="262.22,-140.99 265.72,-150.99 269.22,-140.99 262.22,-140.99"/>
</g>
</g>
</svg>
