<?xml version="1.0" encoding="UTF-8" standalone="no"?>
<svg
   xmlns:dc="http://purl.org/dc/elements/1.1/"
   xmlns:cc="http://creativecommons.org/ns#"
   xmlns:rdf="http://www.w3.org/1999/02/22-rdf-syntax-ns#"
   xmlns:svg="http://www.w3.org/2000/svg"
   xmlns="http://www.w3.org/2000/svg"
   xmlns:sodipodi="http://sodipodi.sourceforge.net/DTD/sodipodi-0.dtd"
   xmlns:inkscape="http://www.inkscape.org/namespaces/inkscape"
   inkscape:version="1.0 (4035a4fb49, 2020-05-01)"
   sodipodi:docname="Cagouille.svg"
   id="svg1490"
   version="1.1"
   enable-background="new 0 0 64 64"
   viewBox="0 0 64 64">
  <metadata
     id="metadata1496">
    <rdf:RDF>
      <cc:Work
         rdf:about="">
        <dc:format>image/svg+xml</dc:format>
        <dc:type
           rdf:resource="http://purl.org/dc/dcmitype/StillImage" />
      </cc:Work>
    </rdf:RDF>
  </metadata>
  <defs
     id="defs1494" />
  <sodipodi:namedview
     inkscape:current-layer="svg1490"
     inkscape:window-maximized="1"
     inkscape:window-y="-8"
     inkscape:window-x="-8"
     inkscape:cy="32"
     inkscape:cx="32"
     inkscape:zoom="8.5625"
     showgrid="false"
     id="namedview1492"
     inkscape:window-height="1027"
     inkscape:window-width="1920"
     inkscape:pageshadow="2"
     inkscape:pageopacity="0"
     guidetolerance="10"
     gridtolerance="10"
     objecttolerance="10"
     borderopacity="1"
     bordercolor="#666666"
     pagecolor="#ffffff" />
  <path
     id="path1474"
     d="m 25.334008,5.5559053 c 0.819,-0.208 1.694,-0.321 2.628,-0.321 0.917,0 1.786,0.272 2.611,0.736 l 0.624,-1.33 c -1.222,-0.655 -2.269,-1.581 -3.094,-2.682 -0.906,0.951 -2.031,1.694 -3.306,2.126 l 0.537,1.471" />
  <ellipse
     style="stroke-width:1.56729"
     id="ellipse1478"
     ry="7.288168"
     rx="1.729"
     cy="34.491344"
     cx="47.283451" />
  <ellipse
     id="ellipse1480"
     ry="1.989"
     rx="1.3839999"
     cy="5.8510394"
     cx="24.265133" />
  <path
     id="path1484"
     d="m 55.791664,14.852883 c 0,-2.484 -2.015,-4.497 -4.501,-4.497 -2.479,0 -4.499,2.013 -4.499,4.497 0,2.489 2.02,4.503 4.499,4.503 2.486,0 4.501,-2.015 4.501,-4.503" />
  <path
     id="path1486"
     d="m 5.0710667,40.763118 c 0.711,0.841 1.563,1.574 2.53,2.16 0.963,0.58 2.0720004,1.004 3.2699983,1.078 1.195,0.069 2.436,-0.285 3.451,-0.94 1.025,-0.669 1.818,-1.524 2.496,-2.52 1.354,-1.979 1.814,-4.491 1.525,-6.839 -0.316,-2.353 -1.315,-4.611 -2.975,-6.384 -0.842,-0.868 -1.865,-1.613 -3.061,-2.052 -1.186,-0.439 -2.5489979,-0.541 -3.7889983,-0.182 -1.309,0.354 -2.418,1.303 -3.021,2.441 -0.615,1.136 -0.834,2.403 -0.729,3.628 0.111,1.217 0.51,2.462 1.424,3.424 0.908,0.955 2.422,1.429 3.715,0.81 1.2149983,-0.645 1.8529983,-2.013 1.5439983,-3.297 -0.173,-0.64 -0.605,-1.182 -1.198,-1.42 -0.2909983,-0.125 -0.6489979,-0.168 -0.9449979,-0.048 -0.2930004,0.118 -0.5040004,0.335 -0.6410004,0.577 0.9550004,-0.869 1.9319983,0.265 2.0389983,1.05 0.127,0.882 -0.498,1.847 -1.2599979,2.145 -0.3690004,0.151 -0.7970004,0.116 -1.2150004,-0.017 -0.405,-0.135 -0.755,-0.385 -1.039,-0.719 -0.574,-0.67 -0.85,-1.645 -0.872,-2.595 -0.017,-0.955 0.197,-1.924 0.659,-2.699 0.455,-0.779 1.177,-1.324 1.999,-1.52 1.7759983,-0.458 3.6749983,0.36 4.9929983,1.805 2.701,2.846 3.592,7.609 1.549,11.084 -1.006,1.725 -2.615,3.227 -4.646,3.3 -2.0299983,0.113 -4.0939983,-0.938 -5.8029983,-2.27 -3.2430003,-4.168 -3.7410003,-10.847 -1.9130003,-14.881 2.7070003,-5.967 7.9839986,-6.869 7.9839986,-6.869 1.634,-0.361 3.295,-0.362 4.799,0.121 1.505,0.458 2.832,1.342 3.93,2.438 1.09,1.108 1.999,2.404 2.687,3.819 0.707,1.403 1.237,2.906 1.587,4.454 0.748,3.09 0.842,6.34 0.496,9.55 -0.338,3.007 -1.119,5.974 -2.162,8.905 -5,2.061 -9.64,3.067 -11.07,3.717 -3.9759983,1.807 -5.0289983,4.535 -2.2469983,4.816 13.3079983,1.346 23.0959983,2.03 29.9289983,2.03 6.763,0 10.63,-0.67 12.142,-2.029 8.541,-7.677 9.363,-28.842 -0.08,-34.35 l 0.747,-2.041 c 4.535,-0.006 8.204,-3.665 8.204,-8.174 0,-4.5150022 -3.676,-8.1730022 -8.216,-8.1730022 -2.35,0 -4.462,0.985 -5.959,2.556 -1.724,-2.296 -4.469,-3.789 -7.572,-3.789 -5.227,0 -9.457,4.211 -9.457,9.4060022 0,5.194 4.23,9.407 9.457,9.407 0.677,0 1.336,-0.074 1.973,-0.208 l 0.996,2.125 c -2.059,2.176 -3.745,5.498 -5.02,8.677 0,-10e-4 0,-10e-4 0,-10e-4 1.547,0.818 2.672,3.265 2.672,6.158 0,3.563 -1.705,6.449 -3.805,6.449 -1.196,0 -2.261,-0.938 -2.957,-2.4 -2.758,2.498 -6.188,4.339 -9.486,5.718 1.625,-2.595 2.785,-5.512 3.396,-8.565 0.679,-3.342 0.677,-6.851 -0.101,-10.227 -0.813,-3.341 -2.41,-6.646 -5.139,-8.944 -1.342,-1.146 -2.996,-1.969 -4.736,-2.247 -1.742,-0.269 -3.52,0.038 -5.008,0.804 3.478,-5.588 9.537,-8.473 15.881,-8.328 0.779,-5.5420022 5.558,-9.8240022 11.334,-9.8240022 2.924,0 5.657,1.08 7.754,3.017 1.687,-1.161 3.678,-1.784 5.777,-1.784 5.633,0 10.216,4.564 10.216,10.1730022 0,4.839 -3.415,8.904 -7.97,9.926 3.083,2.758 5.059,7.241 5.639,12.906 0.925,9.027 -2.037,18.576 -7.203,23.221 -1.982,1.781 -6.013,2.541 -13.479,2.541 -6.799,0 -16.374,-0.648 -30.1319983,-2.039 -2.716,-0.275 -3.227,-2.124 -3.318,-2.685 -0.349,-2.122 1.544,-4.399 4.9379983,-5.942 0.255,-0.115 0.58,-0.234 0.94,-0.355 -5.9389983,-3.309 -6.4479983,-9.079 -6.4479983,-9.079" />
  <path
     id="path1488"
     d="m 37.450197,20.748248 c 3.039,0 5.501,-2.463 5.501,-5.502 0,-3.038 -2.463,-5.4979998 -5.501,-5.4979998 -3.03,0 -5.499,2.4599998 -5.499,5.4979998 0.001,3.039 2.469,5.502 5.499,5.502" />
  <path
     d="m 62.575409,4.160343 c -0.819,-0.208 -1.694,-0.321 -2.628,-0.321 -0.917,0 -1.786,0.272 -2.611,0.736 l -0.624,-1.33 c 1.222,-0.655 2.269,-1.581 3.094,-2.68199997 0.906,0.95099997 2.031,1.69399997 3.306,2.12599997 l -0.537,1.471"
     id="path1474-8" />
  <ellipse
     cx="21.722628"
     cy="43.795624"
     rx="1.3839999"
     ry="1.989"
     id="ellipse1480-7" />
  <ellipse
     cx="62.948906"
     cy="3.7372265"
     rx="1.3839999"
     ry="1.989"
     id="ellipse1480-77" />
</svg>
