<?xml version="1.0" encoding="UTF-8" standalone="no"?>
<!DOCTYPE svg PUBLIC "-//W3C//DTD SVG 1.1//EN"
 "http://www.w3.org/Graphics/SVG/1.1/DTD/svg11.dtd">
<!-- Generated by graphviz version 2.44.0 (20200408.0750)
 -->
<!-- Title: dependencies Pages: 1 -->
<svg width="512pt" height="211pt"
 viewBox="0.00 0.00 512.00 211.00" xmlns="http://www.w3.org/2000/svg" xmlns:xlink="http://www.w3.org/1999/xlink">
<g id="graph0" class="graph" transform="scale(1 1) rotate(0) translate(4 207)">
<title>dependencies</title>
<polygon fill="white" stroke="transparent" points="-4,4 -4,-207 508,-207 508,4 -4,4"/>
<text text-anchor="start" x="231.01" y="-42.4" font-family="sans-serif" font-weight="bold" font-size="14.00">Legend</text>
<polygon fill="#ffffb3" stroke="transparent" points="18,-10 18,-30 38,-30 38,-10 18,-10"/>
<text text-anchor="start" x="41.63" y="-15.4" font-family="sans-serif" font-size="14.00"> &#160;Declarations</text>
<polygon fill="#8dd3c7" stroke="transparent" points="131,-10 131,-30 151,-30 151,-10 131,-10"/>
<text text-anchor="start" x="154.73" y="-15.4" font-family="sans-serif" font-size="14.00"> &#160;Module</text>
<polygon fill="#80b1d3" stroke="transparent" points="217,-10 217,-30 237,-30 237,-10 217,-10"/>
<text text-anchor="start" x="240.78" y="-15.4" font-family="sans-serif" font-size="14.00"> &#160;Bootstrap</text>
<polygon fill="#fdb462" stroke="transparent" points="314,-10 314,-30 334,-30 334,-10 314,-10"/>
<text text-anchor="start" x="337.67" y="-15.4" font-family="sans-serif" font-size="14.00"> &#160;Providers</text>
<polygon fill="#fb8072" stroke="transparent" points="410,-10 410,-30 430,-30 430,-10 410,-10"/>
<text text-anchor="start" x="433.73" y="-15.4" font-family="sans-serif" font-size="14.00"> &#160;Exports</text>
<g id="clust1" class="cluster">
<title>cluster_ObjectInventoryModalPageModule</title>
<polygon fill="none" stroke="black" stroke-dasharray="1,5" points="8,-70 8,-195 496,-195 496,-70 8,-70"/>
</g>
<g id="clust4" class="cluster">
<title>cluster_ObjectInventoryModalPageModule_imports</title>
<polygon fill="none" stroke="black" points="212,-78 212,-130 488,-130 488,-78 212,-78"/>
</g>
<g id="clust2" class="cluster">
<title>cluster_ObjectInventoryModalPageModule_declarations</title>
<polygon fill="none" stroke="black" points="16,-78 16,-130 204,-130 204,-78 16,-78"/>
</g>
<!-- ObjectInventoryModalPage -->
<g id="node1" class="node">
<title>ObjectInventoryModalPage</title>
<polygon fill="#ffffb3" stroke="black" points="195.51,-122 24.49,-122 24.49,-86 195.51,-86 195.51,-122"/>
<text text-anchor="middle" x="110" y="-99.8" font-family="Times,serif" font-size="14.00">ObjectInventoryModalPage</text>
</g>
<!-- ObjectInventoryModalPageModule -->
<g id="node2" class="node">
<title>ObjectInventoryModalPageModule</title>
<polygon fill="#8dd3c7" stroke="black" points="344.55,-187 341.55,-191 320.55,-191 317.55,-187 129.45,-187 129.45,-151 344.55,-151 344.55,-187"/>
<text text-anchor="middle" x="237" y="-164.8" font-family="Times,serif" font-size="14.00">ObjectInventoryModalPageModule</text>
</g>
<!-- ObjectInventoryModalPage&#45;&gt;ObjectInventoryModalPageModule -->
<g id="edge1" class="edge">
<title>ObjectInventoryModalPage&#45;&gt;ObjectInventoryModalPageModule</title>
<path fill="none" stroke="black" d="M162.61,-122.11C162.61,-122.11 162.61,-140.99 162.61,-140.99"/>
<polygon fill="black" stroke="black" points="159.11,-140.99 162.61,-150.99 166.11,-140.99 159.11,-140.99"/>
</g>
<!-- ObjectInventoryModalPageRoutingModule -->
<g id="node3" class="node">
<title>ObjectInventoryModalPageRoutingModule</title>
<polygon fill="#8dd3c7" stroke="black" points="480.17,-122 477.17,-126 456.17,-126 453.17,-122 219.83,-122 219.83,-86 480.17,-86 480.17,-122"/>
<text text-anchor="middle" x="350" y="-99.8" font-family="Times,serif" font-size="14.00">ObjectInventoryModalPageRoutingModule</text>
</g>
<!-- ObjectInventoryModalPageRoutingModule&#45;&gt;ObjectInventoryModalPageModule -->
<g id="edge2" class="edge">
<title>ObjectInventoryModalPageRoutingModule&#45;&gt;ObjectInventoryModalPageModule</title>
<path fill="none" stroke="black" d="M282.22,-122.11C282.22,-122.11 282.22,-140.99 282.22,-140.99"/>
<polygon fill="black" stroke="black" points="278.72,-140.99 282.22,-150.99 285.72,-140.99 278.72,-140.99"/>
</g>
</g>
</svg>
