<?xml version="1.0" encoding="UTF-8" standalone="no"?>
<!DOCTYPE svg PUBLIC "-//W3C//DTD SVG 1.1//EN"
 "http://www.w3.org/Graphics/SVG/1.1/DTD/svg11.dtd">
<!-- Generated by graphviz version 2.40.1 (20161225.0304)
 -->
<!-- Title: dependencies Pages: 1 -->
<svg width="512pt" height="211pt"
 viewBox="0.00 0.00 512.00 211.00" xmlns="http://www.w3.org/2000/svg" xmlns:xlink="http://www.w3.org/1999/xlink">
<g id="graph0" class="graph" transform="scale(1 1) rotate(0) translate(4 207)">
<title>dependencies</title>
<polygon fill="#ffffff" stroke="transparent" points="-4,4 -4,-207 508,-207 508,4 -4,4"/>
<text text-anchor="start" x="231.0091" y="-42.4" font-family="sans-serif" font-weight="bold" font-size="14.00" fill="#000000">Legend</text>
<polygon fill="#ffffb3" stroke="transparent" points="18,-10 18,-30 38,-30 38,-10 18,-10"/>
<text text-anchor="start" x="41.629" y="-15.4" font-family="sans-serif" font-size="14.00" fill="#000000"> &#160;Declarations</text>
<polygon fill="#8dd3c7" stroke="transparent" points="131,-10 131,-30 151,-30 151,-10 131,-10"/>
<text text-anchor="start" x="154.7251" y="-15.4" font-family="sans-serif" font-size="14.00" fill="#000000"> &#160;Module</text>
<polygon fill="#80b1d3" stroke="transparent" points="217,-10 217,-30 237,-30 237,-10 217,-10"/>
<text text-anchor="start" x="240.7812" y="-15.4" font-family="sans-serif" font-size="14.00" fill="#000000"> &#160;Bootstrap</text>
<polygon fill="#fdb462" stroke="transparent" points="314,-10 314,-30 334,-30 334,-10 314,-10"/>
<text text-anchor="start" x="337.6732" y="-15.4" font-family="sans-serif" font-size="14.00" fill="#000000"> &#160;Providers</text>
<polygon fill="#fb8072" stroke="transparent" points="410,-10 410,-30 430,-30 430,-10 410,-10"/>
<text text-anchor="start" x="433.7258" y="-15.4" font-family="sans-serif" font-size="14.00" fill="#000000"> &#160;Exports</text>
<g id="clust1" class="cluster">
<title>cluster_ObjectInventoryModalPageModule</title>
<polygon fill="none" stroke="#000000" stroke-dasharray="1,5" points="8,-70 8,-195 496,-195 496,-70 8,-70"/>
</g>
<g id="clust2" class="cluster">
<title>cluster_ObjectInventoryModalPageModule_declarations</title>
<polygon fill="none" stroke="#000000" points="300,-78 300,-130 488,-130 488,-78 300,-78"/>
</g>
<g id="clust4" class="cluster">
<title>cluster_ObjectInventoryModalPageModule_imports</title>
<polygon fill="none" stroke="#000000" points="16,-78 16,-130 292,-130 292,-78 16,-78"/>
</g>
<!-- ObjectInventoryModalPage -->
<g id="node1" class="node">
<title>ObjectInventoryModalPage</title>
<polygon fill="#ffffb3" stroke="#000000" points="479.5057,-122 308.4943,-122 308.4943,-86 479.5057,-86 479.5057,-122"/>
<text text-anchor="middle" x="394" y="-99.8" font-family="Times,serif" font-size="14.00" fill="#000000">ObjectInventoryModalPage</text>
</g>
<!-- ObjectInventoryModalPageModule -->
<g id="node2" class="node">
<title>ObjectInventoryModalPageModule</title>
<polygon fill="#8dd3c7" stroke="#000000" points="374.5548,-187 371.5548,-191 350.5548,-191 347.5548,-187 159.4452,-187 159.4452,-151 374.5548,-151 374.5548,-187"/>
<text text-anchor="middle" x="267" y="-164.8" font-family="Times,serif" font-size="14.00" fill="#000000">ObjectInventoryModalPageModule</text>
</g>
<!-- ObjectInventoryModalPage&#45;&gt;ObjectInventoryModalPageModule -->
<g id="edge1" class="edge">
<title>ObjectInventoryModalPage&#45;&gt;ObjectInventoryModalPageModule</title>
<path fill="none" stroke="#000000" d="M341.3875,-122.1061C341.3875,-122.1061 341.3875,-140.991 341.3875,-140.991"/>
<polygon fill="#000000" stroke="#000000" points="337.8875,-140.9909 341.3875,-150.991 344.8875,-140.991 337.8875,-140.9909"/>
</g>
<!-- ObjectInventoryModalPageRoutingModule -->
<g id="node3" class="node">
<title>ObjectInventoryModalPageRoutingModule</title>
<polygon fill="#8dd3c7" stroke="#000000" points="284.1727,-122 281.1727,-126 260.1727,-126 257.1727,-122 23.8273,-122 23.8273,-86 284.1727,-86 284.1727,-122"/>
<text text-anchor="middle" x="154" y="-99.8" font-family="Times,serif" font-size="14.00" fill="#000000">ObjectInventoryModalPageRoutingModule</text>
</g>
<!-- ObjectInventoryModalPageRoutingModule&#45;&gt;ObjectInventoryModalPageModule -->
<g id="edge2" class="edge">
<title>ObjectInventoryModalPageRoutingModule&#45;&gt;ObjectInventoryModalPageModule</title>
<path fill="none" stroke="#000000" d="M221.7795,-122.1061C221.7795,-122.1061 221.7795,-140.991 221.7795,-140.991"/>
<polygon fill="#000000" stroke="#000000" points="218.2795,-140.9909 221.7795,-150.991 225.2795,-140.991 218.2795,-140.9909"/>
</g>
</g>
</svg>
