<?xml version="1.0" encoding="UTF-8" standalone="no"?>
<!DOCTYPE svg PUBLIC "-//W3C//DTD SVG 1.1//EN"
 "http://www.w3.org/Graphics/SVG/1.1/DTD/svg11.dtd">
<!-- Generated by graphviz version 2.44.0 (20200408.0750)
 -->
<!-- Title: dependencies Pages: 1 -->
<svg width="504pt" height="211pt"
 viewBox="0.00 0.00 504.00 211.00" xmlns="http://www.w3.org/2000/svg" xmlns:xlink="http://www.w3.org/1999/xlink">
<g id="graph0" class="graph" transform="scale(1 1) rotate(0) translate(4 207)">
<title>dependencies</title>
<polygon fill="white" stroke="transparent" points="-4,4 -4,-207 500,-207 500,4 -4,4"/>
<text text-anchor="start" x="227.01" y="-42.4" font-family="sans-serif" font-weight="bold" font-size="14.00">Legend</text>
<polygon fill="#ffffb3" stroke="transparent" points="14,-10 14,-30 34,-30 34,-10 14,-10"/>
<text text-anchor="start" x="37.63" y="-15.4" font-family="sans-serif" font-size="14.00"> &#160;Declarations</text>
<polygon fill="#8dd3c7" stroke="transparent" points="127,-10 127,-30 147,-30 147,-10 127,-10"/>
<text text-anchor="start" x="150.73" y="-15.4" font-family="sans-serif" font-size="14.00"> &#160;Module</text>
<polygon fill="#80b1d3" stroke="transparent" points="213,-10 213,-30 233,-30 233,-10 213,-10"/>
<text text-anchor="start" x="236.78" y="-15.4" font-family="sans-serif" font-size="14.00"> &#160;Bootstrap</text>
<polygon fill="#fdb462" stroke="transparent" points="310,-10 310,-30 330,-30 330,-10 310,-10"/>
<text text-anchor="start" x="333.67" y="-15.4" font-family="sans-serif" font-size="14.00"> &#160;Providers</text>
<polygon fill="#fb8072" stroke="transparent" points="406,-10 406,-30 426,-30 426,-10 406,-10"/>
<text text-anchor="start" x="429.73" y="-15.4" font-family="sans-serif" font-size="14.00"> &#160;Exports</text>
<g id="clust1" class="cluster">
<title>cluster_LeaderboardPageModule</title>
<polygon fill="none" stroke="black" stroke-dasharray="1,5" points="62,-70 62,-195 434,-195 434,-70 62,-70"/>
</g>
<g id="clust4" class="cluster">
<title>cluster_LeaderboardPageModule_imports</title>
<polygon fill="none" stroke="black" points="208,-78 208,-130 426,-130 426,-78 208,-78"/>
</g>
<g id="clust2" class="cluster">
<title>cluster_LeaderboardPageModule_declarations</title>
<polygon fill="none" stroke="black" points="70,-78 70,-130 200,-130 200,-78 70,-78"/>
</g>
<!-- LeaderboardPage -->
<g id="node1" class="node">
<title>LeaderboardPage</title>
<polygon fill="#ffffb3" stroke="black" points="191.94,-122 78.06,-122 78.06,-86 191.94,-86 191.94,-122"/>
<text text-anchor="middle" x="135" y="-99.8" font-family="Times,serif" font-size="14.00">LeaderboardPage</text>
</g>
<!-- LeaderboardPageModule -->
<g id="node2" class="node">
<title>LeaderboardPageModule</title>
<polygon fill="#8dd3c7" stroke="black" points="311.99,-187 308.99,-191 287.99,-191 284.99,-187 154.01,-187 154.01,-151 311.99,-151 311.99,-187"/>
<text text-anchor="middle" x="233" y="-164.8" font-family="Times,serif" font-size="14.00">LeaderboardPageModule</text>
</g>
<!-- LeaderboardPage&#45;&gt;LeaderboardPageModule -->
<g id="edge1" class="edge">
<title>LeaderboardPage&#45;&gt;LeaderboardPageModule</title>
<path fill="none" stroke="black" d="M173.11,-122.11C173.11,-122.11 173.11,-140.99 173.11,-140.99"/>
<polygon fill="black" stroke="black" points="169.61,-140.99 173.11,-150.99 176.61,-140.99 169.61,-140.99"/>
</g>
<!-- LeaderboardPageRoutingModule -->
<g id="node3" class="node">
<title>LeaderboardPageRoutingModule</title>
<polygon fill="#8dd3c7" stroke="black" points="418.11,-122 415.11,-126 394.11,-126 391.11,-122 215.89,-122 215.89,-86 418.11,-86 418.11,-122"/>
<text text-anchor="middle" x="317" y="-99.8" font-family="Times,serif" font-size="14.00">LeaderboardPageRoutingModule</text>
</g>
<!-- LeaderboardPageRoutingModule&#45;&gt;LeaderboardPageModule -->
<g id="edge2" class="edge">
<title>LeaderboardPageRoutingModule&#45;&gt;LeaderboardPageModule</title>
<path fill="none" stroke="black" d="M263.72,-122.11C263.72,-122.11 263.72,-140.99 263.72,-140.99"/>
<polygon fill="black" stroke="black" points="260.22,-140.99 263.72,-150.99 267.22,-140.99 260.22,-140.99"/>
</g>
</g>
</svg>
