<?xml version="1.0" encoding="UTF-8" standalone="no"?>
<!DOCTYPE svg PUBLIC "-//W3C//DTD SVG 1.1//EN"
 "http://www.w3.org/Graphics/SVG/1.1/DTD/svg11.dtd">
<!-- Generated by graphviz version 2.44.0 (20200408.0750)
 -->
<!-- Title: dependencies Pages: 1 -->
<svg width="504pt" height="211pt"
 viewBox="0.00 0.00 504.00 211.00" xmlns="http://www.w3.org/2000/svg" xmlns:xlink="http://www.w3.org/1999/xlink">
<g id="graph0" class="graph" transform="scale(1 1) rotate(0) translate(4 207)">
<title>dependencies</title>
<polygon fill="white" stroke="transparent" points="-4,4 -4,-207 500,-207 500,4 -4,4"/>
<text text-anchor="start" x="227.01" y="-42.4" font-family="sans-serif" font-weight="bold" font-size="14.00">Legend</text>
<polygon fill="#ffffb3" stroke="transparent" points="14,-10 14,-30 34,-30 34,-10 14,-10"/>
<text text-anchor="start" x="37.63" y="-15.4" font-family="sans-serif" font-size="14.00"> &#160;Declarations</text>
<polygon fill="#8dd3c7" stroke="transparent" points="127,-10 127,-30 147,-30 147,-10 127,-10"/>
<text text-anchor="start" x="150.73" y="-15.4" font-family="sans-serif" font-size="14.00"> &#160;Module</text>
<polygon fill="#80b1d3" stroke="transparent" points="213,-10 213,-30 233,-30 233,-10 213,-10"/>
<text text-anchor="start" x="236.78" y="-15.4" font-family="sans-serif" font-size="14.00"> &#160;Bootstrap</text>
<polygon fill="#fdb462" stroke="transparent" points="310,-10 310,-30 330,-30 330,-10 310,-10"/>
<text text-anchor="start" x="333.67" y="-15.4" font-family="sans-serif" font-size="14.00"> &#160;Providers</text>
<polygon fill="#fb8072" stroke="transparent" points="406,-10 406,-30 426,-30 426,-10 406,-10"/>
<text text-anchor="start" x="429.73" y="-15.4" font-family="sans-serif" font-size="14.00"> &#160;Exports</text>
<g id="clust1" class="cluster">
<title>cluster_ModalLanguagesPageModule</title>
<polygon fill="none" stroke="black" stroke-dasharray="1,5" points="35,-70 35,-195 461,-195 461,-70 35,-70"/>
</g>
<g id="clust2" class="cluster">
<title>cluster_ModalLanguagesPageModule_declarations</title>
<polygon fill="none" stroke="black" points="297,-78 297,-130 453,-130 453,-78 297,-78"/>
</g>
<g id="clust4" class="cluster">
<title>cluster_ModalLanguagesPageModule_imports</title>
<polygon fill="none" stroke="black" points="43,-78 43,-130 289,-130 289,-78 43,-78"/>
</g>
<!-- ModalLanguagesPage -->
<g id="node1" class="node">
<title>ModalLanguagesPage</title>
<polygon fill="#ffffb3" stroke="black" points="445.4,-122 304.6,-122 304.6,-86 445.4,-86 445.4,-122"/>
<text text-anchor="middle" x="375" y="-99.8" font-family="Times,serif" font-size="14.00">ModalLanguagesPage</text>
</g>
<!-- ModalLanguagesPageModule -->
<g id="node2" class="node">
<title>ModalLanguagesPageModule</title>
<polygon fill="#8dd3c7" stroke="black" points="354.95,-187 351.95,-191 330.95,-191 327.95,-187 171.05,-187 171.05,-151 354.95,-151 354.95,-187"/>
<text text-anchor="middle" x="263" y="-164.8" font-family="Times,serif" font-size="14.00">ModalLanguagesPageModule</text>
</g>
<!-- ModalLanguagesPage&#45;&gt;ModalLanguagesPageModule -->
<g id="edge1" class="edge">
<title>ModalLanguagesPage&#45;&gt;ModalLanguagesPageModule</title>
<path fill="none" stroke="black" d="M329.89,-122.11C329.89,-122.11 329.89,-140.99 329.89,-140.99"/>
<polygon fill="black" stroke="black" points="326.39,-140.99 329.89,-150.99 333.39,-140.99 326.39,-140.99"/>
</g>
<!-- ModalLanguagesPageRoutingModule -->
<g id="node3" class="node">
<title>ModalLanguagesPageRoutingModule</title>
<polygon fill="#8dd3c7" stroke="black" points="280.57,-122 277.57,-126 256.57,-126 253.57,-122 51.43,-122 51.43,-86 280.57,-86 280.57,-122"/>
<text text-anchor="middle" x="166" y="-99.8" font-family="Times,serif" font-size="14.00">ModalLanguagesPageRoutingModule</text>
</g>
<!-- ModalLanguagesPageRoutingModule&#45;&gt;ModalLanguagesPageModule -->
<g id="edge2" class="edge">
<title>ModalLanguagesPageRoutingModule&#45;&gt;ModalLanguagesPageModule</title>
<path fill="none" stroke="black" d="M225.78,-122.11C225.78,-122.11 225.78,-140.99 225.78,-140.99"/>
<polygon fill="black" stroke="black" points="222.28,-140.99 225.78,-150.99 229.28,-140.99 222.28,-140.99"/>
</g>
</g>
</svg>
