<?xml version="1.0" encoding="UTF-8" standalone="no"?>
<!DOCTYPE svg PUBLIC "-//W3C//DTD SVG 1.1//EN"
 "http://www.w3.org/Graphics/SVG/1.1/DTD/svg11.dtd">
<!-- Generated by graphviz version 2.40.1 (20161225.0304)
 -->
<!-- Title: dependencies Pages: 1 -->
<svg width="2436pt" height="360pt"
 viewBox="0.00 0.00 2436.00 360.00" xmlns="http://www.w3.org/2000/svg" xmlns:xlink="http://www.w3.org/1999/xlink">
<g id="graph0" class="graph" transform="scale(1 1) rotate(0) translate(4 356)">
<title>dependencies</title>
<polygon fill="#ffffff" stroke="transparent" points="-4,4 -4,-356 2432,-356 2432,4 -4,4"/>
<text text-anchor="start" x="1193.0091" y="-42.4" font-family="sans-serif" font-weight="bold" font-size="14.00" fill="#000000">Legend</text>
<polygon fill="#ffffb3" stroke="transparent" points="980,-10 980,-30 1000,-30 1000,-10 980,-10"/>
<text text-anchor="start" x="1003.629" y="-15.4" font-family="sans-serif" font-size="14.00" fill="#000000"> &#160;Declarations</text>
<polygon fill="#8dd3c7" stroke="transparent" points="1093,-10 1093,-30 1113,-30 1113,-10 1093,-10"/>
<text text-anchor="start" x="1116.7251" y="-15.4" font-family="sans-serif" font-size="14.00" fill="#000000"> &#160;Module</text>
<polygon fill="#80b1d3" stroke="transparent" points="1179,-10 1179,-30 1199,-30 1199,-10 1179,-10"/>
<text text-anchor="start" x="1202.7812" y="-15.4" font-family="sans-serif" font-size="14.00" fill="#000000"> &#160;Bootstrap</text>
<polygon fill="#fdb462" stroke="transparent" points="1276,-10 1276,-30 1296,-30 1296,-10 1276,-10"/>
<text text-anchor="start" x="1299.6732" y="-15.4" font-family="sans-serif" font-size="14.00" fill="#000000"> &#160;Providers</text>
<polygon fill="#fb8072" stroke="transparent" points="1372,-10 1372,-30 1392,-30 1392,-10 1372,-10"/>
<text text-anchor="start" x="1395.7258" y="-15.4" font-family="sans-serif" font-size="14.00" fill="#000000"> &#160;Exports</text>
<g id="clust1" class="cluster">
<title>cluster_AppModule</title>
<polygon fill="none" stroke="#000000" stroke-dasharray="1,5" points="8,-146 8,-344 1426,-344 1426,-146 8,-146"/>
</g>
<g id="clust2" class="cluster">
<title>cluster_AppModule_declarations</title>
<polygon fill="none" stroke="#000000" points="1296,-154 1296,-206 1418,-206 1418,-154 1296,-154"/>
</g>
<g id="clust4" class="cluster">
<title>cluster_AppModule_imports</title>
<polygon fill="none" stroke="#000000" points="528,-154 528,-206 1288,-206 1288,-154 528,-154"/>
</g>
<g id="clust6" class="cluster">
<title>cluster_AppModule_bootstrap</title>
<polygon fill="none" stroke="#000000" points="661,-284 661,-336 785,-336 785,-284 661,-284"/>
</g>
<g id="clust7" class="cluster">
<title>cluster_AppModule_providers</title>
<polygon fill="none" stroke="#000000" points="16,-154 16,-206 520,-206 520,-154 16,-154"/>
</g>
<g id="clust14" class="cluster">
<title>cluster_HistoryModalPageModule</title>
<polygon fill="none" stroke="#000000" stroke-dasharray="1,5" points="79,-70 79,-138 467,-138 467,-70 79,-70"/>
</g>
<g id="clust15" class="cluster">
<title>cluster_HistoryModalPageModule_declarations</title>
<polygon fill="none" stroke="#000000" points="321,-78 321,-130 459,-130 459,-78 321,-78"/>
</g>
<g id="clust17" class="cluster">
<title>cluster_HistoryModalPageModule_imports</title>
<polygon fill="none" stroke="#000000" points="87,-78 87,-130 313,-130 313,-78 87,-78"/>
</g>
<g id="clust27" class="cluster">
<title>cluster_HomePageModule</title>
<polygon fill="none" stroke="#000000" stroke-dasharray="1,5" points="1434,-70 1434,-206 1734,-206 1734,-70 1434,-70"/>
</g>
<g id="clust28" class="cluster">
<title>cluster_HomePageModule_declarations</title>
<polygon fill="none" stroke="#000000" points="1632,-78 1632,-130 1726,-130 1726,-78 1632,-78"/>
</g>
<g id="clust30" class="cluster">
<title>cluster_HomePageModule_imports</title>
<polygon fill="none" stroke="#000000" points="1442,-78 1442,-130 1624,-130 1624,-78 1442,-78"/>
</g>
<g id="clust40" class="cluster">
<title>cluster_LeaderboardPageModule</title>
<polygon fill="none" stroke="#000000" stroke-dasharray="1,5" points="1742,-70 1742,-206 2114,-206 2114,-70 1742,-70"/>
</g>
<g id="clust41" class="cluster">
<title>cluster_LeaderboardPageModule_declarations</title>
<polygon fill="none" stroke="#000000" points="1976,-78 1976,-130 2106,-130 2106,-78 1976,-78"/>
</g>
<g id="clust43" class="cluster">
<title>cluster_LeaderboardPageModule_imports</title>
<polygon fill="none" stroke="#000000" points="1750,-78 1750,-130 1968,-130 1968,-78 1750,-78"/>
</g>
<g id="clust53" class="cluster">
<title>cluster_ObjectInventoryModalPageModule</title>
<polygon fill="none" stroke="#000000" stroke-dasharray="1,5" points="475,-70 475,-138 963,-138 963,-70 475,-70"/>
</g>
<g id="clust54" class="cluster">
<title>cluster_ObjectInventoryModalPageModule_declarations</title>
<polygon fill="none" stroke="#000000" points="767,-78 767,-130 955,-130 955,-78 767,-78"/>
</g>
<g id="clust56" class="cluster">
<title>cluster_ObjectInventoryModalPageModule_imports</title>
<polygon fill="none" stroke="#000000" points="483,-78 483,-130 759,-130 759,-78 483,-78"/>
</g>
<g id="clust66" class="cluster">
<title>cluster_ScenePageModule</title>
<polygon fill="none" stroke="#000000" stroke-dasharray="1,5" points="2122,-70 2122,-206 2420,-206 2420,-70 2122,-70"/>
</g>
<g id="clust67" class="cluster">
<title>cluster_ScenePageModule_declarations</title>
<polygon fill="none" stroke="#000000" points="2320,-78 2320,-130 2412,-130 2412,-78 2320,-78"/>
</g>
<g id="clust69" class="cluster">
<title>cluster_ScenePageModule_imports</title>
<polygon fill="none" stroke="#000000" points="2130,-78 2130,-130 2312,-130 2312,-78 2130,-78"/>
</g>
<g id="clust79" class="cluster">
<title>cluster_WinLooseModalPageModule</title>
<polygon fill="none" stroke="#000000" stroke-dasharray="1,5" points="971,-70 971,-138 1391,-138 1391,-70 971,-70"/>
</g>
<g id="clust80" class="cluster">
<title>cluster_WinLooseModalPageModule_declarations</title>
<polygon fill="none" stroke="#000000" points="1229,-78 1229,-130 1383,-130 1383,-78 1229,-78"/>
</g>
<g id="clust82" class="cluster">
<title>cluster_WinLooseModalPageModule_imports</title>
<polygon fill="none" stroke="#000000" points="979,-78 979,-130 1221,-130 1221,-78 979,-78"/>
</g>
<!-- AppComponent -->
<g id="node1" class="node">
<title>AppComponent</title>
<polygon fill="#ffffb3" stroke="#000000" points="1409.9399,-198 1304.0601,-198 1304.0601,-162 1409.9399,-162 1409.9399,-198"/>
<text text-anchor="middle" x="1357" y="-175.8" font-family="Times,serif" font-size="14.00" fill="#000000">AppComponent</text>
</g>
<!-- AppModule -->
<g id="node2" class="node">
<title>AppModule</title>
<polygon fill="#8dd3c7" stroke="#000000" points="764.6571,-263 761.6571,-267 740.6571,-267 737.6571,-263 681.3429,-263 681.3429,-227 764.6571,-227 764.6571,-263"/>
<text text-anchor="middle" x="723" y="-240.8" font-family="Times,serif" font-size="14.00" fill="#000000">AppModule</text>
</g>
<!-- AppComponent&#45;&gt;AppModule -->
<g id="edge1" class="edge">
<title>AppComponent&#45;&gt;AppModule</title>
<path fill="none" stroke="#000000" d="M1357,-198.2921C1357,-220.2057 1357,-254 1357,-254 1357,-254 775.0895,-254 775.0895,-254"/>
<polygon fill="#000000" stroke="#000000" points="775.0895,-250.5001 765.0895,-254 775.0895,-257.5001 775.0895,-250.5001"/>
</g>
<!-- AppComponent  -->
<g id="node7" class="node">
<title>AppComponent </title>
<polygon fill="#80b1d3" stroke="#000000" points="777.439,-328 668.561,-328 668.561,-292 777.439,-292 777.439,-328"/>
<text text-anchor="middle" x="723" y="-305.8" font-family="Times,serif" font-size="14.00" fill="#000000">AppComponent </text>
</g>
<!-- AppModule&#45;&gt;AppComponent  -->
<g id="edge6" class="edge">
<title>AppModule&#45;&gt;AppComponent </title>
<path fill="none" stroke="#000000" stroke-dasharray="1,5" d="M723,-263.1061C723,-263.1061 723,-281.991 723,-281.991"/>
<polygon fill="#000000" stroke="#000000" points="719.5001,-281.9909 723,-291.991 726.5001,-281.991 719.5001,-281.9909"/>
</g>
<!-- AppRoutingModule -->
<g id="node3" class="node">
<title>AppRoutingModule</title>
<polygon fill="#8dd3c7" stroke="#000000" points="1280.2744,-198 1277.2744,-202 1256.2744,-202 1253.2744,-198 1151.7256,-198 1151.7256,-162 1280.2744,-162 1280.2744,-198"/>
<text text-anchor="middle" x="1216" y="-175.8" font-family="Times,serif" font-size="14.00" fill="#000000">AppRoutingModule</text>
</g>
<!-- AppRoutingModule&#45;&gt;AppModule -->
<g id="edge2" class="edge">
<title>AppRoutingModule&#45;&gt;AppModule</title>
<path fill="none" stroke="#000000" d="M1216,-198.1061C1216,-217.3391 1216,-245 1216,-245 1216,-245 775.0329,-245 775.0329,-245"/>
<polygon fill="#000000" stroke="#000000" points="775.0329,-241.5001 765.0329,-245 775.0329,-248.5001 775.0329,-241.5001"/>
</g>
<!-- HistoryModalPageModule -->
<g id="node4" class="node">
<title>HistoryModalPageModule</title>
<polygon fill="#8dd3c7" stroke="#000000" points="701.8047,-198 698.8047,-202 677.8047,-202 674.8047,-198 536.1953,-198 536.1953,-162 701.8047,-162 701.8047,-198"/>
<text text-anchor="middle" x="619" y="-175.8" font-family="Times,serif" font-size="14.00" fill="#000000">HistoryModalPageModule</text>
</g>
<!-- HistoryModalPageModule&#45;&gt;AppModule -->
<g id="edge3" class="edge">
<title>HistoryModalPageModule&#45;&gt;AppModule</title>
<path fill="none" stroke="#000000" d="M691.412,-198.1061C691.412,-198.1061 691.412,-216.991 691.412,-216.991"/>
<polygon fill="#000000" stroke="#000000" points="687.9121,-216.9909 691.412,-226.991 694.9121,-216.991 687.9121,-216.9909"/>
</g>
<!-- ObjectInventoryModalPageModule -->
<g id="node5" class="node">
<title>ObjectInventoryModalPageModule</title>
<polygon fill="#8dd3c7" stroke="#000000" points="934.5548,-198 931.5548,-202 910.5548,-202 907.5548,-198 719.4452,-198 719.4452,-162 934.5548,-162 934.5548,-198"/>
<text text-anchor="middle" x="827" y="-175.8" font-family="Times,serif" font-size="14.00" fill="#000000">ObjectInventoryModalPageModule</text>
</g>
<!-- ObjectInventoryModalPageModule&#45;&gt;AppModule -->
<g id="edge4" class="edge">
<title>ObjectInventoryModalPageModule&#45;&gt;AppModule</title>
<path fill="none" stroke="#000000" d="M742.1504,-198.1061C742.1504,-198.1061 742.1504,-216.991 742.1504,-216.991"/>
<polygon fill="#000000" stroke="#000000" points="738.6505,-216.9909 742.1504,-226.991 745.6505,-216.991 738.6505,-216.9909"/>
</g>
<!-- WinLooseModalPageModule -->
<g id="node6" class="node">
<title>WinLooseModalPageModule</title>
<polygon fill="#8dd3c7" stroke="#000000" points="1133.6288,-198 1130.6288,-202 1109.6288,-202 1106.6288,-198 952.3712,-198 952.3712,-162 1133.6288,-162 1133.6288,-198"/>
<text text-anchor="middle" x="1043" y="-175.8" font-family="Times,serif" font-size="14.00" fill="#000000">WinLooseModalPageModule</text>
</g>
<!-- WinLooseModalPageModule&#45;&gt;AppModule -->
<g id="edge5" class="edge">
<title>WinLooseModalPageModule&#45;&gt;AppModule</title>
<path fill="none" stroke="#000000" d="M1043,-198.027C1043,-214.3976 1043,-236 1043,-236 1043,-236 774.8344,-236 774.8344,-236"/>
<polygon fill="#000000" stroke="#000000" points="774.8344,-232.5001 764.8344,-236 774.8344,-239.5001 774.8344,-232.5001"/>
</g>
<!-- CharacterService -->
<g id="node8" class="node">
<title>CharacterService</title>
<ellipse fill="#fdb462" stroke="#000000" cx="434" cy="-180" rx="77.5414" ry="18"/>
<text text-anchor="middle" x="434" y="-175.8" font-family="Times,serif" font-size="14.00" fill="#000000">CharacterService</text>
</g>
<!-- CharacterService&#45;&gt;AppModule -->
<g id="edge7" class="edge">
<title>CharacterService&#45;&gt;AppModule</title>
<path fill="none" stroke="#000000" d="M434,-198.027C434,-214.3976 434,-236 434,-236 434,-236 671.2856,-236 671.2856,-236"/>
<polygon fill="#000000" stroke="#000000" points="671.2856,-239.5001 681.2856,-236 671.2855,-232.5001 671.2856,-239.5001"/>
</g>
<!-- SauvegardeService -->
<g id="node9" class="node">
<title>SauvegardeService</title>
<ellipse fill="#fdb462" stroke="#000000" cx="253" cy="-180" rx="85.0715" ry="18"/>
<text text-anchor="middle" x="253" y="-175.8" font-family="Times,serif" font-size="14.00" fill="#000000">SauvegardeService</text>
</g>
<!-- SauvegardeService&#45;&gt;AppModule -->
<g id="edge8" class="edge">
<title>SauvegardeService&#45;&gt;AppModule</title>
<path fill="none" stroke="#000000" d="M253,-198.1061C253,-217.3391 253,-245 253,-245 253,-245 671.2906,-245 671.2906,-245"/>
<polygon fill="#000000" stroke="#000000" points="671.2907,-248.5001 681.2906,-245 671.2906,-241.5001 671.2907,-248.5001"/>
</g>
<!-- SceneService -->
<g id="node10" class="node">
<title>SceneService</title>
<ellipse fill="#fdb462" stroke="#000000" cx="87" cy="-180" rx="63.0977" ry="18"/>
<text text-anchor="middle" x="87" y="-175.8" font-family="Times,serif" font-size="14.00" fill="#000000">SceneService</text>
</g>
<!-- SceneService&#45;&gt;AppModule -->
<g id="edge9" class="edge">
<title>SceneService&#45;&gt;AppModule</title>
<path fill="none" stroke="#000000" d="M87,-198.2921C87,-220.2057 87,-254 87,-254 87,-254 671.2703,-254 671.2703,-254"/>
<polygon fill="#000000" stroke="#000000" points="671.2703,-257.5001 681.2703,-254 671.2702,-250.5001 671.2703,-257.5001"/>
</g>
<!-- HistoryModalPage -->
<g id="node11" class="node">
<title>HistoryModalPage</title>
<polygon fill="#ffffb3" stroke="#000000" points="450.7548,-122 329.2452,-122 329.2452,-86 450.7548,-86 450.7548,-122"/>
<text text-anchor="middle" x="390" y="-99.8" font-family="Times,serif" font-size="14.00" fill="#000000">HistoryModalPage</text>
</g>
<!-- HistoryModalPage&#45;&gt;HistoryModalPageModule -->
<g id="edge10" class="edge">
<title>HistoryModalPage&#45;&gt;HistoryModalPageModule</title>
<path fill="none" stroke="#000000" d="M403.6783,-122.1097C403.6783,-131.897 403.6783,-142 403.6783,-142 403.6783,-142 646.5507,-142 646.5507,-142 646.5507,-142 646.5507,-151.8903 646.5507,-151.8903"/>
<polygon fill="#000000" stroke="#000000" points="643.0508,-151.8903 646.5507,-161.8903 650.0508,-151.8904 643.0508,-151.8903"/>
</g>
<!-- HistoryModalPageRoutingModule -->
<g id="node12" class="node">
<title>HistoryModalPageRoutingModule</title>
<polygon fill="#8dd3c7" stroke="#000000" points="305.4226,-122 302.4226,-126 281.4226,-126 278.4226,-122 94.5774,-122 94.5774,-86 305.4226,-86 305.4226,-122"/>
<text text-anchor="middle" x="200" y="-99.8" font-family="Times,serif" font-size="14.00" fill="#000000">HistoryModalPageRoutingModule</text>
</g>
<!-- HistoryModalPageRoutingModule&#45;&gt;HistoryModalPageModule -->
<g id="edge11" class="edge">
<title>HistoryModalPageRoutingModule&#45;&gt;HistoryModalPageModule</title>
<path fill="none" stroke="#000000" d="M236.5877,-122.1467C236.5877,-135.7395 236.5877,-152 236.5877,-152 236.5877,-152 591.4493,-152 591.4493,-152 591.4493,-152 591.4493,-152.9793 591.4493,-152.9793"/>
<polygon fill="#000000" stroke="#000000" points="587.9494,-151.793 591.4493,-161.793 594.9494,-151.7931 587.9494,-151.793"/>
</g>
<!-- HomePage -->
<g id="node13" class="node">
<title>HomePage</title>
<polygon fill="#ffffb3" stroke="#000000" points="1717.9248,-122 1640.0752,-122 1640.0752,-86 1717.9248,-86 1717.9248,-122"/>
<text text-anchor="middle" x="1679" y="-99.8" font-family="Times,serif" font-size="14.00" fill="#000000">HomePage</text>
</g>
<!-- HomePageModule -->
<g id="node14" class="node">
<title>HomePageModule</title>
<polygon fill="#8dd3c7" stroke="#000000" points="1659.4734,-198 1656.4734,-202 1635.4734,-202 1632.4734,-198 1538.5266,-198 1538.5266,-162 1659.4734,-162 1659.4734,-198"/>
<text text-anchor="middle" x="1599" y="-175.8" font-family="Times,serif" font-size="14.00" fill="#000000">HomePageModule</text>
</g>
<!-- HomePage&#45;&gt;HomePageModule -->
<g id="edge12" class="edge">
<title>HomePage&#45;&gt;HomePageModule</title>
<path fill="none" stroke="#000000" d="M1649.8875,-122.0109C1649.8875,-122.0109 1649.8875,-151.855 1649.8875,-151.855"/>
<polygon fill="#000000" stroke="#000000" points="1646.3875,-151.8549 1649.8875,-161.855 1653.3875,-151.855 1646.3875,-151.8549"/>
</g>
<!-- HomePageRoutingModule -->
<g id="node15" class="node">
<title>HomePageRoutingModule</title>
<polygon fill="#8dd3c7" stroke="#000000" points="1616.0912,-122 1613.0912,-126 1592.0912,-126 1589.0912,-122 1449.9088,-122 1449.9088,-86 1616.0912,-86 1616.0912,-122"/>
<text text-anchor="middle" x="1533" y="-99.8" font-family="Times,serif" font-size="14.00" fill="#000000">HomePageRoutingModule</text>
</g>
<!-- HomePageRoutingModule&#45;&gt;HomePageModule -->
<g id="edge13" class="edge">
<title>HomePageRoutingModule&#45;&gt;HomePageModule</title>
<path fill="none" stroke="#000000" d="M1577.2795,-122.0109C1577.2795,-122.0109 1577.2795,-151.855 1577.2795,-151.855"/>
<polygon fill="#000000" stroke="#000000" points="1573.7795,-151.8549 1577.2795,-161.855 1580.7795,-151.855 1573.7795,-151.8549"/>
</g>
<!-- LeaderboardPage -->
<g id="node16" class="node">
<title>LeaderboardPage</title>
<polygon fill="#ffffb3" stroke="#000000" points="2097.944,-122 1984.056,-122 1984.056,-86 2097.944,-86 2097.944,-122"/>
<text text-anchor="middle" x="2041" y="-99.8" font-family="Times,serif" font-size="14.00" fill="#000000">LeaderboardPage</text>
</g>
<!-- LeaderboardPageModule -->
<g id="node17" class="node">
<title>LeaderboardPageModule</title>
<polygon fill="#8dd3c7" stroke="#000000" points="2021.9946,-198 2018.9946,-202 1997.9946,-202 1994.9946,-198 1864.0054,-198 1864.0054,-162 2021.9946,-162 2021.9946,-198"/>
<text text-anchor="middle" x="1943" y="-175.8" font-family="Times,serif" font-size="14.00" fill="#000000">LeaderboardPageModule</text>
</g>
<!-- LeaderboardPage&#45;&gt;LeaderboardPageModule -->
<g id="edge14" class="edge">
<title>LeaderboardPage&#45;&gt;LeaderboardPageModule</title>
<path fill="none" stroke="#000000" d="M2002.8875,-122.0109C2002.8875,-122.0109 2002.8875,-151.855 2002.8875,-151.855"/>
<polygon fill="#000000" stroke="#000000" points="1999.3875,-151.8549 2002.8875,-161.855 2006.3875,-151.855 1999.3875,-151.8549"/>
</g>
<!-- LeaderboardPageRoutingModule -->
<g id="node18" class="node">
<title>LeaderboardPageRoutingModule</title>
<polygon fill="#8dd3c7" stroke="#000000" points="1960.112,-122 1957.112,-126 1936.112,-126 1933.112,-122 1757.888,-122 1757.888,-86 1960.112,-86 1960.112,-122"/>
<text text-anchor="middle" x="1859" y="-99.8" font-family="Times,serif" font-size="14.00" fill="#000000">LeaderboardPageRoutingModule</text>
</g>
<!-- LeaderboardPageRoutingModule&#45;&gt;LeaderboardPageModule -->
<g id="edge15" class="edge">
<title>LeaderboardPageRoutingModule&#45;&gt;LeaderboardPageModule</title>
<path fill="none" stroke="#000000" d="M1912.2795,-122.0109C1912.2795,-122.0109 1912.2795,-151.855 1912.2795,-151.855"/>
<polygon fill="#000000" stroke="#000000" points="1908.7795,-151.8549 1912.2795,-161.855 1915.7795,-151.855 1908.7795,-151.8549"/>
</g>
<!-- ObjectInventoryModalPage -->
<g id="node19" class="node">
<title>ObjectInventoryModalPage</title>
<polygon fill="#ffffb3" stroke="#000000" points="946.5057,-122 775.4943,-122 775.4943,-86 946.5057,-86 946.5057,-122"/>
<text text-anchor="middle" x="861" y="-99.8" font-family="Times,serif" font-size="14.00" fill="#000000">ObjectInventoryModalPage</text>
</g>
<!-- ObjectInventoryModalPage&#45;&gt;ObjectInventoryModalPageModule -->
<g id="edge16" class="edge">
<title>ObjectInventoryModalPage&#45;&gt;ObjectInventoryModalPageModule</title>
<path fill="none" stroke="#000000" d="M854.8875,-122.0109C854.8875,-122.0109 854.8875,-151.855 854.8875,-151.855"/>
<polygon fill="#000000" stroke="#000000" points="851.3875,-151.8549 854.8875,-161.855 858.3875,-151.855 851.3875,-151.8549"/>
</g>
<!-- ObjectInventoryModalPageRoutingModule -->
<g id="node20" class="node">
<title>ObjectInventoryModalPageRoutingModule</title>
<polygon fill="#8dd3c7" stroke="#000000" points="751.1727,-122 748.1727,-126 727.1727,-126 724.1727,-122 490.8273,-122 490.8273,-86 751.1727,-86 751.1727,-122"/>
<text text-anchor="middle" x="621" y="-99.8" font-family="Times,serif" font-size="14.00" fill="#000000">ObjectInventoryModalPageRoutingModule</text>
</g>
<!-- ObjectInventoryModalPageRoutingModule&#45;&gt;ObjectInventoryModalPageModule -->
<g id="edge17" class="edge">
<title>ObjectInventoryModalPageRoutingModule&#45;&gt;ObjectInventoryModalPageModule</title>
<path fill="none" stroke="#000000" d="M735.2795,-122.0109C735.2795,-122.0109 735.2795,-151.855 735.2795,-151.855"/>
<polygon fill="#000000" stroke="#000000" points="731.7795,-151.8549 735.2795,-161.855 738.7795,-151.855 731.7795,-151.8549"/>
</g>
<!-- ScenePage -->
<g id="node21" class="node">
<title>ScenePage</title>
<polygon fill="#ffffb3" stroke="#000000" points="2404.139,-122 2327.861,-122 2327.861,-86 2404.139,-86 2404.139,-122"/>
<text text-anchor="middle" x="2366" y="-99.8" font-family="Times,serif" font-size="14.00" fill="#000000">ScenePage</text>
</g>
<!-- ScenePageModule -->
<g id="node22" class="node">
<title>ScenePageModule</title>
<polygon fill="#8dd3c7" stroke="#000000" points="2346.1881,-198 2343.1881,-202 2322.1881,-202 2319.1881,-198 2225.8119,-198 2225.8119,-162 2346.1881,-162 2346.1881,-198"/>
<text text-anchor="middle" x="2286" y="-175.8" font-family="Times,serif" font-size="14.00" fill="#000000">ScenePageModule</text>
</g>
<!-- ScenePage&#45;&gt;ScenePageModule -->
<g id="edge18" class="edge">
<title>ScenePage&#45;&gt;ScenePageModule</title>
<path fill="none" stroke="#000000" d="M2336.8875,-122.0109C2336.8875,-122.0109 2336.8875,-151.855 2336.8875,-151.855"/>
<polygon fill="#000000" stroke="#000000" points="2333.3875,-151.8549 2336.8875,-161.855 2340.3875,-151.855 2333.3875,-151.8549"/>
</g>
<!-- ScenePageRoutingModule -->
<g id="node23" class="node">
<title>ScenePageRoutingModule</title>
<polygon fill="#8dd3c7" stroke="#000000" points="2303.8061,-122 2300.8061,-126 2279.8061,-126 2276.8061,-122 2138.1939,-122 2138.1939,-86 2303.8061,-86 2303.8061,-122"/>
<text text-anchor="middle" x="2221" y="-99.8" font-family="Times,serif" font-size="14.00" fill="#000000">ScenePageRoutingModule</text>
</g>
<!-- ScenePageRoutingModule&#45;&gt;ScenePageModule -->
<g id="edge19" class="edge">
<title>ScenePageRoutingModule&#45;&gt;ScenePageModule</title>
<path fill="none" stroke="#000000" d="M2264.7795,-122.0109C2264.7795,-122.0109 2264.7795,-151.855 2264.7795,-151.855"/>
<polygon fill="#000000" stroke="#000000" points="2261.2795,-151.8549 2264.7795,-161.855 2268.2795,-151.855 2261.2795,-151.8549"/>
</g>
<!-- WinLooseModalPage -->
<g id="node24" class="node">
<title>WinLooseModalPage</title>
<polygon fill="#ffffb3" stroke="#000000" points="1375.0786,-122 1236.9214,-122 1236.9214,-86 1375.0786,-86 1375.0786,-122"/>
<text text-anchor="middle" x="1306" y="-99.8" font-family="Times,serif" font-size="14.00" fill="#000000">WinLooseModalPage</text>
</g>
<!-- WinLooseModalPage&#45;&gt;WinLooseModalPageModule -->
<g id="edge20" class="edge">
<title>WinLooseModalPage&#45;&gt;WinLooseModalPageModule</title>
<path fill="none" stroke="#000000" d="M1258.6739,-122.207C1258.6739,-127.5549 1258.6739,-132 1258.6739,-132 1258.6739,-132 1084.7518,-132 1084.7518,-132 1084.7518,-132 1084.7518,-151.8533 1084.7518,-151.8533"/>
<polygon fill="#000000" stroke="#000000" points="1081.2519,-151.8532 1084.7518,-161.8533 1088.2519,-151.8533 1081.2519,-151.8532"/>
</g>
<!-- WinLooseModalPageRoutingModule -->
<g id="node25" class="node">
<title>WinLooseModalPageRoutingModule</title>
<polygon fill="#8dd3c7" stroke="#000000" points="1213.2463,-122 1210.2463,-126 1189.2463,-126 1186.2463,-122 986.7537,-122 986.7537,-86 1213.2463,-86 1213.2463,-122"/>
<text text-anchor="middle" x="1100" y="-99.8" font-family="Times,serif" font-size="14.00" fill="#000000">WinLooseModalPageRoutingModule</text>
</g>
<!-- WinLooseModalPageRoutingModule&#45;&gt;WinLooseModalPageModule -->
<g id="edge21" class="edge">
<title>WinLooseModalPageRoutingModule&#45;&gt;WinLooseModalPageModule</title>
<path fill="none" stroke="#000000" d="M1035.6893,-122.0109C1035.6893,-122.0109 1035.6893,-151.855 1035.6893,-151.855"/>
<polygon fill="#000000" stroke="#000000" points="1032.1894,-151.8549 1035.6893,-161.855 1039.1894,-151.855 1032.1894,-151.8549"/>
</g>
</g>
</svg>
