<?xml version="1.0" encoding="UTF-8" standalone="no"?>
<!DOCTYPE svg PUBLIC "-//W3C//DTD SVG 1.1//EN"
 "http://www.w3.org/Graphics/SVG/1.1/DTD/svg11.dtd">
<!-- Generated by graphviz version 2.40.1 (20161225.0304)
 -->
<!-- Title: dependencies Pages: 1 -->
<svg width="1442pt" height="284pt"
 viewBox="0.00 0.00 1442.00 284.00" xmlns="http://www.w3.org/2000/svg" xmlns:xlink="http://www.w3.org/1999/xlink">
<g id="graph0" class="graph" transform="scale(1 1) rotate(0) translate(4 280)">
<title>dependencies</title>
<polygon fill="#ffffff" stroke="transparent" points="-4,4 -4,-280 1438,-280 1438,4 -4,4"/>
<text text-anchor="start" x="696.0091" y="-42.4" font-family="sans-serif" font-weight="bold" font-size="14.00" fill="#000000">Legend</text>
<polygon fill="#ffffb3" stroke="transparent" points="483,-10 483,-30 503,-30 503,-10 483,-10"/>
<text text-anchor="start" x="506.629" y="-15.4" font-family="sans-serif" font-size="14.00" fill="#000000"> &#160;Declarations</text>
<polygon fill="#8dd3c7" stroke="transparent" points="596,-10 596,-30 616,-30 616,-10 596,-10"/>
<text text-anchor="start" x="619.7251" y="-15.4" font-family="sans-serif" font-size="14.00" fill="#000000"> &#160;Module</text>
<polygon fill="#80b1d3" stroke="transparent" points="682,-10 682,-30 702,-30 702,-10 682,-10"/>
<text text-anchor="start" x="705.7812" y="-15.4" font-family="sans-serif" font-size="14.00" fill="#000000"> &#160;Bootstrap</text>
<polygon fill="#fdb462" stroke="transparent" points="779,-10 779,-30 799,-30 799,-10 779,-10"/>
<text text-anchor="start" x="802.6732" y="-15.4" font-family="sans-serif" font-size="14.00" fill="#000000"> &#160;Providers</text>
<polygon fill="#fb8072" stroke="transparent" points="875,-10 875,-30 895,-30 895,-10 875,-10"/>
<text text-anchor="start" x="898.7258" y="-15.4" font-family="sans-serif" font-size="14.00" fill="#000000"> &#160;Exports</text>
<g id="clust1" class="cluster">
<title>cluster_AppModule</title>
<polygon fill="none" stroke="#000000" stroke-dasharray="1,5" points="8,-70 8,-268 1426,-268 1426,-70 8,-70"/>
</g>
<g id="clust2" class="cluster">
<title>cluster_AppModule_declarations</title>
<polygon fill="none" stroke="#000000" points="1296,-78 1296,-130 1418,-130 1418,-78 1296,-78"/>
</g>
<g id="clust4" class="cluster">
<title>cluster_AppModule_imports</title>
<polygon fill="none" stroke="#000000" points="528,-78 528,-130 1288,-130 1288,-78 528,-78"/>
</g>
<g id="clust6" class="cluster">
<title>cluster_AppModule_bootstrap</title>
<polygon fill="none" stroke="#000000" points="673,-208 673,-260 797,-260 797,-208 673,-208"/>
</g>
<g id="clust7" class="cluster">
<title>cluster_AppModule_providers</title>
<polygon fill="none" stroke="#000000" points="16,-78 16,-130 520,-130 520,-78 16,-78"/>
</g>
<!-- AppComponent -->
<g id="node1" class="node">
<title>AppComponent</title>
<polygon fill="#ffffb3" stroke="#000000" points="1409.9399,-122 1304.0601,-122 1304.0601,-86 1409.9399,-86 1409.9399,-122"/>
<text text-anchor="middle" x="1357" y="-99.8" font-family="Times,serif" font-size="14.00" fill="#000000">AppComponent</text>
</g>
<!-- AppModule -->
<g id="node2" class="node">
<title>AppModule</title>
<polygon fill="#8dd3c7" stroke="#000000" points="776.6571,-187 773.6571,-191 752.6571,-191 749.6571,-187 693.3429,-187 693.3429,-151 776.6571,-151 776.6571,-187"/>
<text text-anchor="middle" x="735" y="-164.8" font-family="Times,serif" font-size="14.00" fill="#000000">AppModule</text>
</g>
<!-- AppComponent&#45;&gt;AppModule -->
<g id="edge1" class="edge">
<title>AppComponent&#45;&gt;AppModule</title>
<path fill="none" stroke="#000000" d="M1357,-122.2921C1357,-144.2057 1357,-178 1357,-178 1357,-178 786.777,-178 786.777,-178"/>
<polygon fill="#000000" stroke="#000000" points="786.777,-174.5001 776.777,-178 786.777,-181.5001 786.777,-174.5001"/>
</g>
<!-- AppComponent  -->
<g id="node7" class="node">
<title>AppComponent </title>
<polygon fill="#80b1d3" stroke="#000000" points="789.439,-252 680.561,-252 680.561,-216 789.439,-216 789.439,-252"/>
<text text-anchor="middle" x="735" y="-229.8" font-family="Times,serif" font-size="14.00" fill="#000000">AppComponent </text>
</g>
<!-- AppModule&#45;&gt;AppComponent  -->
<g id="edge6" class="edge">
<title>AppModule&#45;&gt;AppComponent </title>
<path fill="none" stroke="#000000" stroke-dasharray="1,5" d="M735,-187.1061C735,-187.1061 735,-205.991 735,-205.991"/>
<polygon fill="#000000" stroke="#000000" points="731.5001,-205.9909 735,-215.991 738.5001,-205.991 731.5001,-205.9909"/>
</g>
<!-- AppRoutingModule -->
<g id="node3" class="node">
<title>AppRoutingModule</title>
<polygon fill="#8dd3c7" stroke="#000000" points="1280.2744,-122 1277.2744,-126 1256.2744,-126 1253.2744,-122 1151.7256,-122 1151.7256,-86 1280.2744,-86 1280.2744,-122"/>
<text text-anchor="middle" x="1216" y="-99.8" font-family="Times,serif" font-size="14.00" fill="#000000">AppRoutingModule</text>
</g>
<!-- AppRoutingModule&#45;&gt;AppModule -->
<g id="edge2" class="edge">
<title>AppRoutingModule&#45;&gt;AppModule</title>
<path fill="none" stroke="#000000" d="M1216,-122.1061C1216,-141.3391 1216,-169 1216,-169 1216,-169 786.8442,-169 786.8442,-169"/>
<polygon fill="#000000" stroke="#000000" points="786.8442,-165.5001 776.8442,-169 786.8441,-172.5001 786.8442,-165.5001"/>
</g>
<!-- HistoryModalPageModule -->
<g id="node4" class="node">
<title>HistoryModalPageModule</title>
<polygon fill="#8dd3c7" stroke="#000000" points="1133.8047,-122 1130.8047,-126 1109.8047,-126 1106.8047,-122 968.1953,-122 968.1953,-86 1133.8047,-86 1133.8047,-122"/>
<text text-anchor="middle" x="1051" y="-99.8" font-family="Times,serif" font-size="14.00" fill="#000000">HistoryModalPageModule</text>
</g>
<!-- HistoryModalPageModule&#45;&gt;AppModule -->
<g id="edge3" class="edge">
<title>HistoryModalPageModule&#45;&gt;AppModule</title>
<path fill="none" stroke="#000000" d="M1051,-122.027C1051,-138.3976 1051,-160 1051,-160 1051,-160 786.9624,-160 786.9624,-160"/>
<polygon fill="#000000" stroke="#000000" points="786.9624,-156.5001 776.9624,-160 786.9623,-163.5001 786.9624,-156.5001"/>
</g>
<!-- ObjectInventoryModalPageModule -->
<g id="node5" class="node">
<title>ObjectInventoryModalPageModule</title>
<polygon fill="#8dd3c7" stroke="#000000" points="950.5548,-122 947.5548,-126 926.5548,-126 923.5548,-122 735.4452,-122 735.4452,-86 950.5548,-86 950.5548,-122"/>
<text text-anchor="middle" x="843" y="-99.8" font-family="Times,serif" font-size="14.00" fill="#000000">ObjectInventoryModalPageModule</text>
</g>
<!-- ObjectInventoryModalPageModule&#45;&gt;AppModule -->
<g id="edge4" class="edge">
<title>ObjectInventoryModalPageModule&#45;&gt;AppModule</title>
<path fill="none" stroke="#000000" d="M756.1504,-122.1061C756.1504,-122.1061 756.1504,-140.991 756.1504,-140.991"/>
<polygon fill="#000000" stroke="#000000" points="752.6505,-140.9909 756.1504,-150.991 759.6505,-140.991 752.6505,-140.9909"/>
</g>
<!-- WinLooseModalPageModule -->
<g id="node6" class="node">
<title>WinLooseModalPageModule</title>
<polygon fill="#8dd3c7" stroke="#000000" points="717.6288,-122 714.6288,-126 693.6288,-126 690.6288,-122 536.3712,-122 536.3712,-86 717.6288,-86 717.6288,-122"/>
<text text-anchor="middle" x="627" y="-99.8" font-family="Times,serif" font-size="14.00" fill="#000000">WinLooseModalPageModule</text>
</g>
<!-- WinLooseModalPageModule&#45;&gt;AppModule -->
<g id="edge5" class="edge">
<title>WinLooseModalPageModule&#45;&gt;AppModule</title>
<path fill="none" stroke="#000000" d="M705.493,-122.1061C705.493,-122.1061 705.493,-140.991 705.493,-140.991"/>
<polygon fill="#000000" stroke="#000000" points="701.9931,-140.9909 705.493,-150.991 708.9931,-140.991 701.9931,-140.9909"/>
</g>
<!-- CharacterService -->
<g id="node8" class="node">
<title>CharacterService</title>
<ellipse fill="#fdb462" stroke="#000000" cx="434" cy="-104" rx="77.5414" ry="18"/>
<text text-anchor="middle" x="434" y="-99.8" font-family="Times,serif" font-size="14.00" fill="#000000">CharacterService</text>
</g>
<!-- CharacterService&#45;&gt;AppModule -->
<g id="edge7" class="edge">
<title>CharacterService&#45;&gt;AppModule</title>
<path fill="none" stroke="#000000" d="M434,-122.027C434,-138.3976 434,-160 434,-160 434,-160 683.1472,-160 683.1472,-160"/>
<polygon fill="#000000" stroke="#000000" points="683.1473,-163.5001 693.1472,-160 683.1472,-156.5001 683.1473,-163.5001"/>
</g>
<!-- SauvegardeService -->
<g id="node9" class="node">
<title>SauvegardeService</title>
<ellipse fill="#fdb462" stroke="#000000" cx="253" cy="-104" rx="85.0715" ry="18"/>
<text text-anchor="middle" x="253" y="-99.8" font-family="Times,serif" font-size="14.00" fill="#000000">SauvegardeService</text>
</g>
<!-- SauvegardeService&#45;&gt;AppModule -->
<g id="edge8" class="edge">
<title>SauvegardeService&#45;&gt;AppModule</title>
<path fill="none" stroke="#000000" d="M253,-122.1061C253,-141.3391 253,-169 253,-169 253,-169 683.0688,-169 683.0688,-169"/>
<polygon fill="#000000" stroke="#000000" points="683.0689,-172.5001 693.0688,-169 683.0688,-165.5001 683.0689,-172.5001"/>
</g>
<!-- SceneService -->
<g id="node10" class="node">
<title>SceneService</title>
<ellipse fill="#fdb462" stroke="#000000" cx="87" cy="-104" rx="63.0977" ry="18"/>
<text text-anchor="middle" x="87" y="-99.8" font-family="Times,serif" font-size="14.00" fill="#000000">SceneService</text>
</g>
<!-- SceneService&#45;&gt;AppModule -->
<g id="edge9" class="edge">
<title>SceneService&#45;&gt;AppModule</title>
<path fill="none" stroke="#000000" d="M87,-122.2921C87,-144.2057 87,-178 87,-178 87,-178 682.9822,-178 682.9822,-178"/>
<polygon fill="#000000" stroke="#000000" points="682.9822,-181.5001 692.9822,-178 682.9822,-174.5001 682.9822,-181.5001"/>
</g>
</g>
</svg>
