<?xml version="1.0" encoding="UTF-8" standalone="no"?>
<!DOCTYPE svg PUBLIC "-//W3C//DTD SVG 1.1//EN"
 "http://www.w3.org/Graphics/SVG/1.1/DTD/svg11.dtd">
<!-- Generated by graphviz version 2.44.0 (20200408.0750)
 -->
<!-- Title: dependencies Pages: 1 -->
<svg width="1442pt" height="284pt"
 viewBox="0.00 0.00 1442.00 284.00" xmlns="http://www.w3.org/2000/svg" xmlns:xlink="http://www.w3.org/1999/xlink">
<g id="graph0" class="graph" transform="scale(1 1) rotate(0) translate(4 280)">
<title>dependencies</title>
<polygon fill="white" stroke="transparent" points="-4,4 -4,-280 1438,-280 1438,4 -4,4"/>
<text text-anchor="start" x="696.01" y="-42.4" font-family="sans-serif" font-weight="bold" font-size="14.00">Legend</text>
<polygon fill="#ffffb3" stroke="transparent" points="483,-10 483,-30 503,-30 503,-10 483,-10"/>
<text text-anchor="start" x="506.63" y="-15.4" font-family="sans-serif" font-size="14.00"> &#160;Declarations</text>
<polygon fill="#8dd3c7" stroke="transparent" points="596,-10 596,-30 616,-30 616,-10 596,-10"/>
<text text-anchor="start" x="619.73" y="-15.4" font-family="sans-serif" font-size="14.00"> &#160;Module</text>
<polygon fill="#80b1d3" stroke="transparent" points="682,-10 682,-30 702,-30 702,-10 682,-10"/>
<text text-anchor="start" x="705.78" y="-15.4" font-family="sans-serif" font-size="14.00"> &#160;Bootstrap</text>
<polygon fill="#fdb462" stroke="transparent" points="779,-10 779,-30 799,-30 799,-10 779,-10"/>
<text text-anchor="start" x="802.67" y="-15.4" font-family="sans-serif" font-size="14.00"> &#160;Providers</text>
<polygon fill="#fb8072" stroke="transparent" points="875,-10 875,-30 895,-30 895,-10 875,-10"/>
<text text-anchor="start" x="898.73" y="-15.4" font-family="sans-serif" font-size="14.00"> &#160;Exports</text>
<g id="clust1" class="cluster">
<title>cluster_AppModule</title>
<polygon fill="none" stroke="black" stroke-dasharray="1,5" points="8,-70 8,-268 1426,-268 1426,-70 8,-70"/>
</g>
<g id="clust2" class="cluster">
<title>cluster_AppModule_declarations</title>
<polygon fill="none" stroke="black" points="1296,-78 1296,-130 1418,-130 1418,-78 1296,-78"/>
</g>
<g id="clust4" class="cluster">
<title>cluster_AppModule_imports</title>
<polygon fill="none" stroke="black" points="528,-78 528,-130 1288,-130 1288,-78 528,-78"/>
</g>
<g id="clust6" class="cluster">
<title>cluster_AppModule_bootstrap</title>
<polygon fill="none" stroke="black" points="673,-208 673,-260 797,-260 797,-208 673,-208"/>
</g>
<g id="clust7" class="cluster">
<title>cluster_AppModule_providers</title>
<polygon fill="none" stroke="black" points="16,-78 16,-130 520,-130 520,-78 16,-78"/>
</g>
<!-- AppComponent -->
<g id="node1" class="node">
<title>AppComponent</title>
<polygon fill="#ffffb3" stroke="black" points="1409.94,-122 1304.06,-122 1304.06,-86 1409.94,-86 1409.94,-122"/>
<text text-anchor="middle" x="1357" y="-99.8" font-family="Times,serif" font-size="14.00">AppComponent</text>
</g>
<!-- AppModule -->
<g id="node2" class="node">
<title>AppModule</title>
<polygon fill="#8dd3c7" stroke="black" points="776.66,-187 773.66,-191 752.66,-191 749.66,-187 693.34,-187 693.34,-151 776.66,-151 776.66,-187"/>
<text text-anchor="middle" x="735" y="-164.8" font-family="Times,serif" font-size="14.00">AppModule</text>
</g>
<!-- AppComponent&#45;&gt;AppModule -->
<g id="edge1" class="edge">
<title>AppComponent&#45;&gt;AppModule</title>
<path fill="none" stroke="black" d="M1357,-122.29C1357,-144.21 1357,-178 1357,-178 1357,-178 786.78,-178 786.78,-178"/>
<polygon fill="black" stroke="black" points="786.78,-174.5 776.78,-178 786.78,-181.5 786.78,-174.5"/>
</g>
<!-- AppComponent  -->
<g id="node7" class="node">
<title>AppComponent </title>
<polygon fill="#80b1d3" stroke="black" points="789.44,-252 680.56,-252 680.56,-216 789.44,-216 789.44,-252"/>
<text text-anchor="middle" x="735" y="-229.8" font-family="Times,serif" font-size="14.00">AppComponent </text>
</g>
<!-- AppModule&#45;&gt;AppComponent  -->
<g id="edge6" class="edge">
<title>AppModule&#45;&gt;AppComponent </title>
<path fill="none" stroke="black" stroke-dasharray="1,5" d="M735,-187.11C735,-187.11 735,-205.99 735,-205.99"/>
<polygon fill="black" stroke="black" points="731.5,-205.99 735,-215.99 738.5,-205.99 731.5,-205.99"/>
</g>
<!-- AppRoutingModule -->
<g id="node3" class="node">
<title>AppRoutingModule</title>
<polygon fill="#8dd3c7" stroke="black" points="1280.27,-122 1277.27,-126 1256.27,-126 1253.27,-122 1151.73,-122 1151.73,-86 1280.27,-86 1280.27,-122"/>
<text text-anchor="middle" x="1216" y="-99.8" font-family="Times,serif" font-size="14.00">AppRoutingModule</text>
</g>
<!-- AppRoutingModule&#45;&gt;AppModule -->
<g id="edge2" class="edge">
<title>AppRoutingModule&#45;&gt;AppModule</title>
<path fill="none" stroke="black" d="M1216,-122.11C1216,-141.34 1216,-169 1216,-169 1216,-169 786.84,-169 786.84,-169"/>
<polygon fill="black" stroke="black" points="786.84,-165.5 776.84,-169 786.84,-172.5 786.84,-165.5"/>
</g>
<!-- HistoryModalPageModule -->
<g id="node4" class="node">
<title>HistoryModalPageModule</title>
<polygon fill="#8dd3c7" stroke="black" points="1133.8,-122 1130.8,-126 1109.8,-126 1106.8,-122 968.2,-122 968.2,-86 1133.8,-86 1133.8,-122"/>
<text text-anchor="middle" x="1051" y="-99.8" font-family="Times,serif" font-size="14.00">HistoryModalPageModule</text>
</g>
<!-- HistoryModalPageModule&#45;&gt;AppModule -->
<g id="edge3" class="edge">
<title>HistoryModalPageModule&#45;&gt;AppModule</title>
<path fill="none" stroke="black" d="M1051,-122.03C1051,-138.4 1051,-160 1051,-160 1051,-160 786.96,-160 786.96,-160"/>
<polygon fill="black" stroke="black" points="786.96,-156.5 776.96,-160 786.96,-163.5 786.96,-156.5"/>
</g>
<!-- ObjectInventoryModalPageModule -->
<g id="node5" class="node">
<title>ObjectInventoryModalPageModule</title>
<polygon fill="#8dd3c7" stroke="black" points="950.55,-122 947.55,-126 926.55,-126 923.55,-122 735.45,-122 735.45,-86 950.55,-86 950.55,-122"/>
<text text-anchor="middle" x="843" y="-99.8" font-family="Times,serif" font-size="14.00">ObjectInventoryModalPageModule</text>
</g>
<!-- ObjectInventoryModalPageModule&#45;&gt;AppModule -->
<g id="edge4" class="edge">
<title>ObjectInventoryModalPageModule&#45;&gt;AppModule</title>
<path fill="none" stroke="black" d="M756.15,-122.11C756.15,-122.11 756.15,-140.99 756.15,-140.99"/>
<polygon fill="black" stroke="black" points="752.65,-140.99 756.15,-150.99 759.65,-140.99 752.65,-140.99"/>
</g>
<!-- WinLooseModalPageModule -->
<g id="node6" class="node">
<title>WinLooseModalPageModule</title>
<polygon fill="#8dd3c7" stroke="black" points="717.63,-122 714.63,-126 693.63,-126 690.63,-122 536.37,-122 536.37,-86 717.63,-86 717.63,-122"/>
<text text-anchor="middle" x="627" y="-99.8" font-family="Times,serif" font-size="14.00">WinLooseModalPageModule</text>
</g>
<!-- WinLooseModalPageModule&#45;&gt;AppModule -->
<g id="edge5" class="edge">
<title>WinLooseModalPageModule&#45;&gt;AppModule</title>
<path fill="none" stroke="black" d="M705.49,-122.11C705.49,-122.11 705.49,-140.99 705.49,-140.99"/>
<polygon fill="black" stroke="black" points="701.99,-140.99 705.49,-150.99 708.99,-140.99 701.99,-140.99"/>
</g>
<!-- CharacterService -->
<g id="node8" class="node">
<title>CharacterService</title>
<ellipse fill="#fdb462" stroke="black" cx="434" cy="-104" rx="77.54" ry="18"/>
<text text-anchor="middle" x="434" y="-99.8" font-family="Times,serif" font-size="14.00">CharacterService</text>
</g>
<!-- CharacterService&#45;&gt;AppModule -->
<g id="edge7" class="edge">
<title>CharacterService&#45;&gt;AppModule</title>
<path fill="none" stroke="black" d="M434,-122.03C434,-138.4 434,-160 434,-160 434,-160 683.15,-160 683.15,-160"/>
<polygon fill="black" stroke="black" points="683.15,-163.5 693.15,-160 683.15,-156.5 683.15,-163.5"/>
</g>
<!-- SauvegardeService -->
<g id="node9" class="node">
<title>SauvegardeService</title>
<ellipse fill="#fdb462" stroke="black" cx="253" cy="-104" rx="85.07" ry="18"/>
<text text-anchor="middle" x="253" y="-99.8" font-family="Times,serif" font-size="14.00">SauvegardeService</text>
</g>
<!-- SauvegardeService&#45;&gt;AppModule -->
<g id="edge8" class="edge">
<title>SauvegardeService&#45;&gt;AppModule</title>
<path fill="none" stroke="black" d="M253,-122.11C253,-141.34 253,-169 253,-169 253,-169 683.07,-169 683.07,-169"/>
<polygon fill="black" stroke="black" points="683.07,-172.5 693.07,-169 683.07,-165.5 683.07,-172.5"/>
</g>
<!-- SceneService -->
<g id="node10" class="node">
<title>SceneService</title>
<ellipse fill="#fdb462" stroke="black" cx="87" cy="-104" rx="63.1" ry="18"/>
<text text-anchor="middle" x="87" y="-99.8" font-family="Times,serif" font-size="14.00">SceneService</text>
</g>
<!-- SceneService&#45;&gt;AppModule -->
<g id="edge9" class="edge">
<title>SceneService&#45;&gt;AppModule</title>
<path fill="none" stroke="black" d="M87,-122.29C87,-144.21 87,-178 87,-178 87,-178 682.98,-178 682.98,-178"/>
<polygon fill="black" stroke="black" points="682.98,-181.5 692.98,-178 682.98,-174.5 682.98,-181.5"/>
</g>
</g>
</svg>
