<?xml version="1.0" encoding="UTF-8" standalone="no"?>
<!DOCTYPE svg PUBLIC "-//W3C//DTD SVG 1.1//EN"
 "http://www.w3.org/Graphics/SVG/1.1/DTD/svg11.dtd">
<!-- Generated by graphviz version 2.44.0 (20200408.0750)
 -->
<!-- Title: dependencies Pages: 1 -->
<svg width="1442pt" height="284pt"
 viewBox="0.00 0.00 1442.00 284.00" xmlns="http://www.w3.org/2000/svg" xmlns:xlink="http://www.w3.org/1999/xlink">
<g id="graph0" class="graph" transform="scale(1 1) rotate(0) translate(4 280)">
<title>dependencies</title>
<polygon fill="white" stroke="transparent" points="-4,4 -4,-280 1438,-280 1438,4 -4,4"/>
<text text-anchor="start" x="696.01" y="-42.4" font-family="sans-serif" font-weight="bold" font-size="14.00">Legend</text>
<polygon fill="#ffffb3" stroke="transparent" points="483,-10 483,-30 503,-30 503,-10 483,-10"/>
<text text-anchor="start" x="506.63" y="-15.4" font-family="sans-serif" font-size="14.00"> &#160;Declarations</text>
<polygon fill="#8dd3c7" stroke="transparent" points="596,-10 596,-30 616,-30 616,-10 596,-10"/>
<text text-anchor="start" x="619.73" y="-15.4" font-family="sans-serif" font-size="14.00"> &#160;Module</text>
<polygon fill="#80b1d3" stroke="transparent" points="682,-10 682,-30 702,-30 702,-10 682,-10"/>
<text text-anchor="start" x="705.78" y="-15.4" font-family="sans-serif" font-size="14.00"> &#160;Bootstrap</text>
<polygon fill="#fdb462" stroke="transparent" points="779,-10 779,-30 799,-30 799,-10 779,-10"/>
<text text-anchor="start" x="802.67" y="-15.4" font-family="sans-serif" font-size="14.00"> &#160;Providers</text>
<polygon fill="#fb8072" stroke="transparent" points="875,-10 875,-30 895,-30 895,-10 875,-10"/>
<text text-anchor="start" x="898.73" y="-15.4" font-family="sans-serif" font-size="14.00"> &#160;Exports</text>
<g id="clust1" class="cluster">
<title>cluster_AppModule</title>
<polygon fill="none" stroke="black" stroke-dasharray="1,5" points="8,-70 8,-268 1426,-268 1426,-70 8,-70"/>
</g>
<g id="clust4" class="cluster">
<title>cluster_AppModule_imports</title>
<polygon fill="none" stroke="black" points="658,-78 658,-130 1418,-130 1418,-78 658,-78"/>
</g>
<g id="clust6" class="cluster">
<title>cluster_AppModule_bootstrap</title>
<polygon fill="none" stroke="black" points="598,-208 598,-260 722,-260 722,-208 598,-208"/>
</g>
<g id="clust7" class="cluster">
<title>cluster_AppModule_providers</title>
<polygon fill="none" stroke="black" points="146,-78 146,-130 650,-130 650,-78 146,-78"/>
</g>
<g id="clust2" class="cluster">
<title>cluster_AppModule_declarations</title>
<polygon fill="none" stroke="black" points="16,-78 16,-130 138,-130 138,-78 16,-78"/>
</g>
<!-- AppComponent -->
<g id="node1" class="node">
<title>AppComponent</title>
<polygon fill="#ffffb3" stroke="black" points="129.94,-122 24.06,-122 24.06,-86 129.94,-86 129.94,-122"/>
<text text-anchor="middle" x="77" y="-99.8" font-family="Times,serif" font-size="14.00">AppComponent</text>
</g>
<!-- AppModule -->
<g id="node2" class="node">
<title>AppModule</title>
<polygon fill="#8dd3c7" stroke="black" points="701.66,-187 698.66,-191 677.66,-191 674.66,-187 618.34,-187 618.34,-151 701.66,-151 701.66,-187"/>
<text text-anchor="middle" x="660" y="-164.8" font-family="Times,serif" font-size="14.00">AppModule</text>
</g>
<!-- AppComponent&#45;&gt;AppModule -->
<g id="edge1" class="edge">
<title>AppComponent&#45;&gt;AppModule</title>
<path fill="none" stroke="black" d="M77,-122.29C77,-144.21 77,-178 77,-178 77,-178 608.07,-178 608.07,-178"/>
<polygon fill="black" stroke="black" points="608.07,-181.5 618.07,-178 608.07,-174.5 608.07,-181.5"/>
</g>
<!-- AppComponent  -->
<g id="node7" class="node">
<title>AppComponent </title>
<polygon fill="#80b1d3" stroke="black" points="714.44,-252 605.56,-252 605.56,-216 714.44,-216 714.44,-252"/>
<text text-anchor="middle" x="660" y="-229.8" font-family="Times,serif" font-size="14.00">AppComponent </text>
</g>
<!-- AppModule&#45;&gt;AppComponent  -->
<g id="edge6" class="edge">
<title>AppModule&#45;&gt;AppComponent </title>
<path fill="none" stroke="black" stroke-dasharray="1,5" d="M660,-187.11C660,-187.11 660,-205.99 660,-205.99"/>
<polygon fill="black" stroke="black" points="656.5,-205.99 660,-215.99 663.5,-205.99 656.5,-205.99"/>
</g>
<!-- AppRoutingModule -->
<g id="node3" class="node">
<title>AppRoutingModule</title>
<polygon fill="#8dd3c7" stroke="black" points="1410.27,-122 1407.27,-126 1386.27,-126 1383.27,-122 1281.73,-122 1281.73,-86 1410.27,-86 1410.27,-122"/>
<text text-anchor="middle" x="1346" y="-99.8" font-family="Times,serif" font-size="14.00">AppRoutingModule</text>
</g>
<!-- AppRoutingModule&#45;&gt;AppModule -->
<g id="edge2" class="edge">
<title>AppRoutingModule&#45;&gt;AppModule</title>
<path fill="none" stroke="black" d="M1346,-122.29C1346,-144.21 1346,-178 1346,-178 1346,-178 711.88,-178 711.88,-178"/>
<polygon fill="black" stroke="black" points="711.88,-174.5 701.88,-178 711.88,-181.5 711.88,-174.5"/>
</g>
<!-- HistoryModalPageModule -->
<g id="node4" class="node">
<title>HistoryModalPageModule</title>
<polygon fill="#8dd3c7" stroke="black" points="1263.8,-122 1260.8,-126 1239.8,-126 1236.8,-122 1098.2,-122 1098.2,-86 1263.8,-86 1263.8,-122"/>
<text text-anchor="middle" x="1181" y="-99.8" font-family="Times,serif" font-size="14.00">HistoryModalPageModule</text>
</g>
<!-- HistoryModalPageModule&#45;&gt;AppModule -->
<g id="edge3" class="edge">
<title>HistoryModalPageModule&#45;&gt;AppModule</title>
<path fill="none" stroke="black" d="M1181,-122.11C1181,-141.34 1181,-169 1181,-169 1181,-169 711.75,-169 711.75,-169"/>
<polygon fill="black" stroke="black" points="711.75,-165.5 701.75,-169 711.75,-172.5 711.75,-165.5"/>
</g>
<!-- ObjectInventoryModalPageModule -->
<g id="node5" class="node">
<title>ObjectInventoryModalPageModule</title>
<polygon fill="#8dd3c7" stroke="black" points="1080.55,-122 1077.55,-126 1056.55,-126 1053.55,-122 865.45,-122 865.45,-86 1080.55,-86 1080.55,-122"/>
<text text-anchor="middle" x="973" y="-99.8" font-family="Times,serif" font-size="14.00">ObjectInventoryModalPageModule</text>
</g>
<!-- ObjectInventoryModalPageModule&#45;&gt;AppModule -->
<g id="edge4" class="edge">
<title>ObjectInventoryModalPageModule&#45;&gt;AppModule</title>
<path fill="none" stroke="black" d="M973,-122.03C973,-138.4 973,-160 973,-160 973,-160 711.89,-160 711.89,-160"/>
<polygon fill="black" stroke="black" points="711.89,-156.5 701.89,-160 711.89,-163.5 711.89,-156.5"/>
</g>
<!-- WinLooseModalPageModule -->
<g id="node6" class="node">
<title>WinLooseModalPageModule</title>
<polygon fill="#8dd3c7" stroke="black" points="847.63,-122 844.63,-126 823.63,-126 820.63,-122 666.37,-122 666.37,-86 847.63,-86 847.63,-122"/>
<text text-anchor="middle" x="757" y="-99.8" font-family="Times,serif" font-size="14.00">WinLooseModalPageModule</text>
</g>
<!-- WinLooseModalPageModule&#45;&gt;AppModule -->
<g id="edge5" class="edge">
<title>WinLooseModalPageModule&#45;&gt;AppModule</title>
<path fill="none" stroke="black" d="M684.01,-122.11C684.01,-122.11 684.01,-140.99 684.01,-140.99"/>
<polygon fill="black" stroke="black" points="680.51,-140.99 684.01,-150.99 687.51,-140.99 680.51,-140.99"/>
</g>
<!-- CharacterService -->
<g id="node8" class="node">
<title>CharacterService</title>
<ellipse fill="#fdb462" stroke="black" cx="564" cy="-104" rx="77.54" ry="18"/>
<text text-anchor="middle" x="564" y="-99.8" font-family="Times,serif" font-size="14.00">CharacterService</text>
</g>
<!-- CharacterService&#45;&gt;AppModule -->
<g id="edge7" class="edge">
<title>CharacterService&#45;&gt;AppModule</title>
<path fill="none" stroke="black" d="M629.85,-113.59C629.85,-113.59 629.85,-140.75 629.85,-140.75"/>
<polygon fill="black" stroke="black" points="626.35,-140.75 629.85,-150.75 633.35,-140.75 626.35,-140.75"/>
</g>
<!-- SauvegardeService -->
<g id="node9" class="node">
<title>SauvegardeService</title>
<ellipse fill="#fdb462" stroke="black" cx="383" cy="-104" rx="85.07" ry="18"/>
<text text-anchor="middle" x="383" y="-99.8" font-family="Times,serif" font-size="14.00">SauvegardeService</text>
</g>
<!-- SauvegardeService&#45;&gt;AppModule -->
<g id="edge8" class="edge">
<title>SauvegardeService&#45;&gt;AppModule</title>
<path fill="none" stroke="black" d="M383,-122.03C383,-138.4 383,-160 383,-160 383,-160 608.23,-160 608.23,-160"/>
<polygon fill="black" stroke="black" points="608.23,-163.5 618.23,-160 608.23,-156.5 608.23,-163.5"/>
</g>
<!-- SceneService -->
<g id="node10" class="node">
<title>SceneService</title>
<ellipse fill="#fdb462" stroke="black" cx="217" cy="-104" rx="63.1" ry="18"/>
<text text-anchor="middle" x="217" y="-99.8" font-family="Times,serif" font-size="14.00">SceneService</text>
</g>
<!-- SceneService&#45;&gt;AppModule -->
<g id="edge9" class="edge">
<title>SceneService&#45;&gt;AppModule</title>
<path fill="none" stroke="black" d="M217,-122.11C217,-141.34 217,-169 217,-169 217,-169 608.32,-169 608.32,-169"/>
<polygon fill="black" stroke="black" points="608.32,-172.5 618.32,-169 608.32,-165.5 608.32,-172.5"/>
</g>
</g>
</svg>
