<?xml version="1.0" encoding="UTF-8" standalone="no"?>
<!DOCTYPE svg PUBLIC "-//W3C//DTD SVG 1.1//EN"
 "http://www.w3.org/Graphics/SVG/1.1/DTD/svg11.dtd">
<!-- Generated by graphviz version 2.44.0 (20200408.0750)
 -->
<!-- Title: dependencies Pages: 1 -->
<svg width="524pt" height="211pt"
 viewBox="0.00 0.00 524.00 211.00" xmlns="http://www.w3.org/2000/svg" xmlns:xlink="http://www.w3.org/1999/xlink">
<g id="graph0" class="graph" transform="scale(1 1) rotate(0) translate(4 207)">
<title>dependencies</title>
<polygon fill="white" stroke="transparent" points="-4,4 -4,-207 520,-207 520,4 -4,4"/>
<text text-anchor="start" x="237.01" y="-42.4" font-family="sans-serif" font-weight="bold" font-size="14.00">Legend</text>
<polygon fill="#ffffb3" stroke="transparent" points="24,-10 24,-30 44,-30 44,-10 24,-10"/>
<text text-anchor="start" x="47.63" y="-15.4" font-family="sans-serif" font-size="14.00"> &#160;Declarations</text>
<polygon fill="#8dd3c7" stroke="transparent" points="137,-10 137,-30 157,-30 157,-10 137,-10"/>
<text text-anchor="start" x="160.73" y="-15.4" font-family="sans-serif" font-size="14.00"> &#160;Module</text>
<polygon fill="#80b1d3" stroke="transparent" points="223,-10 223,-30 243,-30 243,-10 223,-10"/>
<text text-anchor="start" x="246.78" y="-15.4" font-family="sans-serif" font-size="14.00"> &#160;Bootstrap</text>
<polygon fill="#fdb462" stroke="transparent" points="320,-10 320,-30 340,-30 340,-10 320,-10"/>
<text text-anchor="start" x="343.67" y="-15.4" font-family="sans-serif" font-size="14.00"> &#160;Providers</text>
<polygon fill="#fb8072" stroke="transparent" points="416,-10 416,-30 436,-30 436,-10 416,-10"/>
<text text-anchor="start" x="439.73" y="-15.4" font-family="sans-serif" font-size="14.00"> &#160;Exports</text>
<g id="clust1" class="cluster">
<title>cluster_ScenePageModule</title>
<polygon fill="none" stroke="black" stroke-dasharray="1,5" points="8,-70 8,-195 508,-195 508,-70 8,-70"/>
</g>
<g id="clust2" class="cluster">
<title>cluster_ScenePageModule_declarations</title>
<polygon fill="none" stroke="black" points="408,-78 408,-130 500,-130 500,-78 408,-78"/>
</g>
<g id="clust4" class="cluster">
<title>cluster_ScenePageModule_imports</title>
<polygon fill="none" stroke="black" points="16,-78 16,-130 400,-130 400,-78 16,-78"/>
</g>
<!-- ScenePage -->
<g id="node1" class="node">
<title>ScenePage</title>
<polygon fill="#ffffb3" stroke="black" points="492.14,-122 415.86,-122 415.86,-86 492.14,-86 492.14,-122"/>
<text text-anchor="middle" x="454" y="-99.8" font-family="Times,serif" font-size="14.00">ScenePage</text>
</g>
<!-- ScenePageModule -->
<g id="node2" class="node">
<title>ScenePageModule</title>
<polygon fill="#8dd3c7" stroke="black" points="360.19,-187 357.19,-191 336.19,-191 333.19,-187 239.81,-187 239.81,-151 360.19,-151 360.19,-187"/>
<text text-anchor="middle" x="300" y="-164.8" font-family="Times,serif" font-size="14.00">ScenePageModule</text>
</g>
<!-- ScenePage&#45;&gt;ScenePageModule -->
<g id="edge1" class="edge">
<title>ScenePage&#45;&gt;ScenePageModule</title>
<path fill="none" stroke="black" d="M454,-122.11C454,-141.34 454,-169 454,-169 454,-169 370.42,-169 370.42,-169"/>
<polygon fill="black" stroke="black" points="370.42,-165.5 360.42,-169 370.42,-172.5 370.42,-165.5"/>
</g>
<!-- ModalLanguagesPageModule -->
<g id="node3" class="node">
<title>ModalLanguagesPageModule</title>
<polygon fill="#8dd3c7" stroke="black" points="391.95,-122 388.95,-126 367.95,-126 364.95,-122 208.05,-122 208.05,-86 391.95,-86 391.95,-122"/>
<text text-anchor="middle" x="300" y="-99.8" font-family="Times,serif" font-size="14.00">ModalLanguagesPageModule</text>
</g>
<!-- ModalLanguagesPageModule&#45;&gt;ScenePageModule -->
<g id="edge2" class="edge">
<title>ModalLanguagesPageModule&#45;&gt;ScenePageModule</title>
<path fill="none" stroke="black" d="M300,-122.11C300,-122.11 300,-140.99 300,-140.99"/>
<polygon fill="black" stroke="black" points="296.5,-140.99 300,-150.99 303.5,-140.99 296.5,-140.99"/>
</g>
<!-- ScenePageRoutingModule -->
<g id="node4" class="node">
<title>ScenePageRoutingModule</title>
<polygon fill="#8dd3c7" stroke="black" points="189.81,-122 186.81,-126 165.81,-126 162.81,-122 24.19,-122 24.19,-86 189.81,-86 189.81,-122"/>
<text text-anchor="middle" x="107" y="-99.8" font-family="Times,serif" font-size="14.00">ScenePageRoutingModule</text>
</g>
<!-- ScenePageRoutingModule&#45;&gt;ScenePageModule -->
<g id="edge3" class="edge">
<title>ScenePageRoutingModule&#45;&gt;ScenePageModule</title>
<path fill="none" stroke="black" d="M107,-122.11C107,-141.34 107,-169 107,-169 107,-169 229.73,-169 229.73,-169"/>
<polygon fill="black" stroke="black" points="229.73,-172.5 239.73,-169 229.73,-165.5 229.73,-172.5"/>
</g>
</g>
</svg>
