<?xml version="1.0" encoding="UTF-8" standalone="no"?>
<!DOCTYPE svg PUBLIC "-//W3C//DTD SVG 1.1//EN"
 "http://www.w3.org/Graphics/SVG/1.1/DTD/svg11.dtd">
<!-- Generated by graphviz version 2.40.1 (20161225.0304)
 -->
<!-- Title: dependencies Pages: 1 -->
<svg width="504pt" height="211pt"
 viewBox="0.00 0.00 504.00 211.00" xmlns="http://www.w3.org/2000/svg" xmlns:xlink="http://www.w3.org/1999/xlink">
<g id="graph0" class="graph" transform="scale(1 1) rotate(0) translate(4 207)">
<title>dependencies</title>
<polygon fill="#ffffff" stroke="transparent" points="-4,4 -4,-207 500,-207 500,4 -4,4"/>
<text text-anchor="start" x="227.0091" y="-42.4" font-family="sans-serif" font-weight="bold" font-size="14.00" fill="#000000">Legend</text>
<polygon fill="#ffffb3" stroke="transparent" points="14,-10 14,-30 34,-30 34,-10 14,-10"/>
<text text-anchor="start" x="37.629" y="-15.4" font-family="sans-serif" font-size="14.00" fill="#000000"> &#160;Declarations</text>
<polygon fill="#8dd3c7" stroke="transparent" points="127,-10 127,-30 147,-30 147,-10 127,-10"/>
<text text-anchor="start" x="150.7251" y="-15.4" font-family="sans-serif" font-size="14.00" fill="#000000"> &#160;Module</text>
<polygon fill="#80b1d3" stroke="transparent" points="213,-10 213,-30 233,-30 233,-10 213,-10"/>
<text text-anchor="start" x="236.7812" y="-15.4" font-family="sans-serif" font-size="14.00" fill="#000000"> &#160;Bootstrap</text>
<polygon fill="#fdb462" stroke="transparent" points="310,-10 310,-30 330,-30 330,-10 310,-10"/>
<text text-anchor="start" x="333.6732" y="-15.4" font-family="sans-serif" font-size="14.00" fill="#000000"> &#160;Providers</text>
<polygon fill="#fb8072" stroke="transparent" points="406,-10 406,-30 426,-30 426,-10 406,-10"/>
<text text-anchor="start" x="429.7258" y="-15.4" font-family="sans-serif" font-size="14.00" fill="#000000"> &#160;Exports</text>
<g id="clust1" class="cluster">
<title>cluster_ScenePageModule</title>
<polygon fill="none" stroke="#000000" stroke-dasharray="1,5" points="99,-70 99,-195 397,-195 397,-70 99,-70"/>
</g>
<g id="clust2" class="cluster">
<title>cluster_ScenePageModule_declarations</title>
<polygon fill="none" stroke="#000000" points="297,-78 297,-130 389,-130 389,-78 297,-78"/>
</g>
<g id="clust4" class="cluster">
<title>cluster_ScenePageModule_imports</title>
<polygon fill="none" stroke="#000000" points="107,-78 107,-130 289,-130 289,-78 107,-78"/>
</g>
<!-- ScenePage -->
<g id="node1" class="node">
<title>ScenePage</title>
<polygon fill="#ffffb3" stroke="#000000" points="381.139,-122 304.861,-122 304.861,-86 381.139,-86 381.139,-122"/>
<text text-anchor="middle" x="343" y="-99.8" font-family="Times,serif" font-size="14.00" fill="#000000">ScenePage</text>
</g>
<!-- ScenePageModule -->
<g id="node2" class="node">
<title>ScenePageModule</title>
<polygon fill="#8dd3c7" stroke="#000000" points="323.1881,-187 320.1881,-191 299.1881,-191 296.1881,-187 202.8119,-187 202.8119,-151 323.1881,-151 323.1881,-187"/>
<text text-anchor="middle" x="263" y="-164.8" font-family="Times,serif" font-size="14.00" fill="#000000">ScenePageModule</text>
</g>
<!-- ScenePage&#45;&gt;ScenePageModule -->
<g id="edge1" class="edge">
<title>ScenePage&#45;&gt;ScenePageModule</title>
<path fill="none" stroke="#000000" d="M313.8875,-122.1061C313.8875,-122.1061 313.8875,-140.991 313.8875,-140.991"/>
<polygon fill="#000000" stroke="#000000" points="310.3875,-140.9909 313.8875,-150.991 317.3875,-140.991 310.3875,-140.9909"/>
</g>
<!-- ScenePageRoutingModule -->
<g id="node3" class="node">
<title>ScenePageRoutingModule</title>
<polygon fill="#8dd3c7" stroke="#000000" points="280.8061,-122 277.8061,-126 256.8061,-126 253.8061,-122 115.1939,-122 115.1939,-86 280.8061,-86 280.8061,-122"/>
<text text-anchor="middle" x="198" y="-99.8" font-family="Times,serif" font-size="14.00" fill="#000000">ScenePageRoutingModule</text>
</g>
<!-- ScenePageRoutingModule&#45;&gt;ScenePageModule -->
<g id="edge2" class="edge">
<title>ScenePageRoutingModule&#45;&gt;ScenePageModule</title>
<path fill="none" stroke="#000000" d="M241.7795,-122.1061C241.7795,-122.1061 241.7795,-140.991 241.7795,-140.991"/>
<polygon fill="#000000" stroke="#000000" points="238.2795,-140.9909 241.7795,-150.991 245.2795,-140.991 238.2795,-140.9909"/>
</g>
</g>
</svg>
