<?xml version="1.0" encoding="UTF-8" standalone="no"?>
<!DOCTYPE svg PUBLIC "-//W3C//DTD SVG 1.1//EN"
 "http://www.w3.org/Graphics/SVG/1.1/DTD/svg11.dtd">
<!-- Generated by graphviz version 2.44.0 (20200408.0750)
 -->
<!-- Title: dependencies Pages: 1 -->
<svg width="524pt" height="211pt"
 viewBox="0.00 0.00 524.00 211.00" xmlns="http://www.w3.org/2000/svg" xmlns:xlink="http://www.w3.org/1999/xlink">
<g id="graph0" class="graph" transform="scale(1 1) rotate(0) translate(4 207)">
<title>dependencies</title>
<polygon fill="white" stroke="transparent" points="-4,4 -4,-207 520,-207 520,4 -4,4"/>
<text text-anchor="start" x="237.01" y="-42.4" font-family="sans-serif" font-weight="bold" font-size="14.00">Legend</text>
<polygon fill="#ffffb3" stroke="transparent" points="24,-10 24,-30 44,-30 44,-10 24,-10"/>
<text text-anchor="start" x="47.63" y="-15.4" font-family="sans-serif" font-size="14.00"> &#160;Declarations</text>
<polygon fill="#8dd3c7" stroke="transparent" points="137,-10 137,-30 157,-30 157,-10 137,-10"/>
<text text-anchor="start" x="160.73" y="-15.4" font-family="sans-serif" font-size="14.00"> &#160;Module</text>
<polygon fill="#80b1d3" stroke="transparent" points="223,-10 223,-30 243,-30 243,-10 223,-10"/>
<text text-anchor="start" x="246.78" y="-15.4" font-family="sans-serif" font-size="14.00"> &#160;Bootstrap</text>
<polygon fill="#fdb462" stroke="transparent" points="320,-10 320,-30 340,-30 340,-10 320,-10"/>
<text text-anchor="start" x="343.67" y="-15.4" font-family="sans-serif" font-size="14.00"> &#160;Providers</text>
<polygon fill="#fb8072" stroke="transparent" points="416,-10 416,-30 436,-30 436,-10 416,-10"/>
<text text-anchor="start" x="439.73" y="-15.4" font-family="sans-serif" font-size="14.00"> &#160;Exports</text>
<g id="clust1" class="cluster">
<title>cluster_ScenePageModule</title>
<polygon fill="none" stroke="black" stroke-dasharray="1,5" points="8,-70 8,-195 508,-195 508,-70 8,-70"/>
</g>
<g id="clust4" class="cluster">
<title>cluster_ScenePageModule_imports</title>
<polygon fill="none" stroke="black" points="116,-78 116,-130 500,-130 500,-78 116,-78"/>
</g>
<g id="clust2" class="cluster">
<title>cluster_ScenePageModule_declarations</title>
<polygon fill="none" stroke="black" points="16,-78 16,-130 108,-130 108,-78 16,-78"/>
</g>
<!-- ScenePage -->
<g id="node1" class="node">
<title>ScenePage</title>
<polygon fill="#ffffb3" stroke="black" points="100.14,-122 23.86,-122 23.86,-86 100.14,-86 100.14,-122"/>
<text text-anchor="middle" x="62" y="-99.8" font-family="Times,serif" font-size="14.00">ScenePage</text>
</g>
<!-- ScenePageModule -->
<g id="node2" class="node">
<title>ScenePageModule</title>
<polygon fill="#8dd3c7" stroke="black" points="267.19,-187 264.19,-191 243.19,-191 240.19,-187 146.81,-187 146.81,-151 267.19,-151 267.19,-187"/>
<text text-anchor="middle" x="207" y="-164.8" font-family="Times,serif" font-size="14.00">ScenePageModule</text>
</g>
<!-- ScenePage&#45;&gt;ScenePageModule -->
<g id="edge1" class="edge">
<title>ScenePage&#45;&gt;ScenePageModule</title>
<path fill="none" stroke="black" d="M62,-122.11C62,-141.34 62,-169 62,-169 62,-169 136.77,-169 136.77,-169"/>
<polygon fill="black" stroke="black" points="136.77,-172.5 146.77,-169 136.77,-165.5 136.77,-172.5"/>
</g>
<!-- ModalLanguagesPageModule -->
<g id="node3" class="node">
<title>ModalLanguagesPageModule</title>
<polygon fill="#8dd3c7" stroke="black" points="491.95,-122 488.95,-126 467.95,-126 464.95,-122 308.05,-122 308.05,-86 491.95,-86 491.95,-122"/>
<text text-anchor="middle" x="400" y="-99.8" font-family="Times,serif" font-size="14.00">ModalLanguagesPageModule</text>
</g>
<!-- ModalLanguagesPageModule&#45;&gt;ScenePageModule -->
<g id="edge2" class="edge">
<title>ModalLanguagesPageModule&#45;&gt;ScenePageModule</title>
<path fill="none" stroke="black" d="M400,-122.11C400,-141.34 400,-169 400,-169 400,-169 277.27,-169 277.27,-169"/>
<polygon fill="black" stroke="black" points="277.27,-165.5 267.27,-169 277.27,-172.5 277.27,-165.5"/>
</g>
<!-- ScenePageRoutingModule -->
<g id="node4" class="node">
<title>ScenePageRoutingModule</title>
<polygon fill="#8dd3c7" stroke="black" points="289.81,-122 286.81,-126 265.81,-126 262.81,-122 124.19,-122 124.19,-86 289.81,-86 289.81,-122"/>
<text text-anchor="middle" x="207" y="-99.8" font-family="Times,serif" font-size="14.00">ScenePageRoutingModule</text>
</g>
<!-- ScenePageRoutingModule&#45;&gt;ScenePageModule -->
<g id="edge3" class="edge">
<title>ScenePageRoutingModule&#45;&gt;ScenePageModule</title>
<path fill="none" stroke="black" d="M207,-122.11C207,-122.11 207,-140.99 207,-140.99"/>
<polygon fill="black" stroke="black" points="203.5,-140.99 207,-150.99 210.5,-140.99 203.5,-140.99"/>
</g>
</g>
</svg>
